<svg width="20" height="20" viewBox="0 0 20 20" fill="none" xmlns="http://www.w3.org/2000/svg">
<path fill-rule="evenodd" clip-rule="evenodd" d="M18.9585 10C18.9585 5.05247 14.9477 1.04169 10.0002 1.04169C5.05261 1.04169 1.04183 5.05247 1.04183 10C1.04183 11.4319 1.37825 12.7871 1.97693 13.9891C2.06627 14.1684 2.08522 14.3516 2.044 14.5057L1.54766 16.3607C1.20789 17.6305 2.36963 18.7923 3.6395 18.4525L5.49453 17.9562C5.64861 17.915 5.83175 17.9339 6.01112 18.0233C7.2131 18.6219 8.56824 18.9584 10.0002 18.9584C14.9477 18.9584 18.9585 14.9476 18.9585 10ZM10.0002 2.29169C14.2574 2.29169 17.7085 5.74283 17.7085 10C17.7085 14.2572 14.2574 17.7084 10.0002 17.7084C8.76595 17.7084 7.60117 17.4188 6.56842 16.9044C6.15392 16.6979 5.65827 16.6184 5.17144 16.7487L3.31641 17.245C2.97571 17.3362 2.66402 17.0245 2.75518 16.6838L3.25152 14.8287C3.38178 14.3419 3.30228 13.8463 3.09583 13.4318C2.58143 12.399 2.29183 11.2342 2.29183 10C2.29183 5.74283 5.74297 2.29169 10.0002 2.29169Z" fill="#0C111C"/>
</svg>
