<svg width="20" height="20" viewBox="0 0 20 20" fill="none" xmlns="http://www.w3.org/2000/svg">
<path fill-rule="evenodd" clip-rule="evenodd" d="M4.7774 1.7025C5.79184 0.693819 7.46215 0.873365 8.31158 2.00802L9.3624 3.41169C10.0536 4.33492 9.99258 5.62526 9.17215 6.44103L8.97318 6.63887C8.96449 6.66412 8.94341 6.74346 8.96681 6.89425C9.01949 7.23383 9.30305 7.95417 10.4935 9.13785C11.6835 10.3211 12.409 10.6044 12.7533 10.6572C12.9094 10.6811 12.9911 10.6588 13.0163 10.65L13.3563 10.312C14.0857 9.58675 15.2064 9.45119 16.1094 9.94208L17.7015 10.8076C19.0648 11.5487 19.4092 13.4018 18.2923 14.5123L17.1085 15.6894C16.7355 16.0603 16.2339 16.3695 15.6218 16.4266C14.1143 16.5671 10.5991 16.3878 6.90566 12.7153C3.45739 9.28666 2.79568 6.29667 2.71195 4.82348L3.33595 4.78802L2.71195 4.82348C2.66962 4.07855 3.02163 3.4483 3.4694 3.00308L4.7774 1.7025ZM7.31092 2.75714C6.88873 2.19318 6.10183 2.14834 5.65876 2.5889L4.35076 3.88947C4.07583 4.16285 3.94355 4.46412 3.95994 4.75255C4.02646 5.92305 4.56088 8.62112 7.78702 11.8289C11.1716 15.1943 14.2975 15.2946 15.5058 15.182C15.7526 15.159 15.9981 15.0307 16.2271 14.803L17.4109 13.626C17.8921 13.1475 17.786 12.2763 17.1045 11.9058L15.5124 11.0403C15.0728 10.8013 14.5577 10.8802 14.2377 11.1983L13.8582 11.5757L13.4175 11.1325C13.8582 11.5757 13.8576 11.5763 13.857 11.5769L13.8557 11.5781L13.8532 11.5806L13.8478 11.5858L13.8356 11.5972C13.8268 11.6052 13.8168 11.6139 13.8055 11.6233C13.7828 11.642 13.755 11.6633 13.7217 11.6856C13.655 11.7303 13.5669 11.7789 13.4562 11.8201C13.2305 11.9042 12.9328 11.9494 12.5638 11.8928C11.8415 11.782 10.8846 11.2895 9.61213 10.0242C8.34006 8.75939 7.84345 7.80695 7.73158 7.08588C7.67438 6.71717 7.72 6.41942 7.80511 6.19354C7.84682 6.08284 7.89597 5.99482 7.94108 5.92824C7.96358 5.89504 7.98499 5.86728 8.00388 5.84474C8.01333 5.83346 8.02216 5.82348 8.03019 5.81475L8.04164 5.8026L8.04688 5.79721L8.04937 5.79469L8.05058 5.79348C8.05118 5.79288 8.05178 5.79229 8.49246 6.23549L8.05178 5.79229L8.29079 5.55463C8.64796 5.19949 8.69799 4.60995 8.36174 4.16081L7.31092 2.75714Z" fill="#0C111C"/>
</svg>
