<svg width="22" height="22" viewBox="0 0 22 22" fill="none" xmlns="http://www.w3.org/2000/svg">
<path d="M10.4502 16.6478L10.4503 16.6478L17.2298 9.86822C16.3071 9.48418 15.2142 8.85336 14.1807 7.8198C13.147 6.78607 12.5161 5.69304 12.1321 4.77025L5.35242 11.5499L5.35239 11.5499C4.82335 12.079 4.55881 12.3435 4.33132 12.6352C4.06295 12.9793 3.83287 13.3515 3.64514 13.7454C3.486 14.0794 3.3677 14.4343 3.13109 15.1441L1.88341 18.8872C1.76697 19.2365 1.85788 19.6216 2.11824 19.8819C2.3786 20.1423 2.76371 20.2332 3.11302 20.1168L6.85608 18.8691C7.56588 18.6325 7.9208 18.5142 8.25472 18.355C8.64863 18.1673 9.02091 17.9372 9.36498 17.6689C9.65665 17.4414 9.92121 17.1768 10.4502 16.6478Z" fill="white"/>
<path d="M19.111 7.98698C20.5188 6.57925 20.5188 4.29687 19.111 2.88914C17.7033 1.48141 15.4209 1.48141 14.0132 2.88914L13.2001 3.70226C13.2112 3.73588 13.2228 3.76997 13.2347 3.8045C13.5328 4.66355 14.0951 5.78968 15.153 6.84753C16.2108 7.90537 17.3369 8.4677 18.196 8.76574C18.2304 8.77767 18.2643 8.78916 18.2978 8.80025L19.111 7.98698Z" fill="white"/>
</svg>
