<svg width="20" height="20" viewBox="0 0 20 20" fill="none" xmlns="http://www.w3.org/2000/svg">
<path fill-rule="evenodd" clip-rule="evenodd" d="M4.69649 3.46223C3.3184 4.12088 2.2915 5.69914 2.2915 7.59916C2.2915 11.1216 4.79047 13.1426 7.15588 15.0556C7.39467 15.2487 7.63211 15.4407 7.86547 15.6331C8.30397 15.9945 8.69502 16.3116 9.07171 16.5418C9.44934 16.7725 9.74902 16.875 9.99984 16.875C10.2697 16.875 10.5739 16.7596 10.9389 16.5346C9.80389 15.6614 8.5415 14.4507 8.5415 12.5496C8.5415 11.2385 9.32202 10.1098 10.4357 9.62593C11.4436 9.18802 12.659 9.30046 13.7497 10.1368C14.4277 9.61654 15.1595 9.37143 15.8726 9.37503C16.4099 9.37774 16.9154 9.52187 17.3551 9.77129C17.5792 9.1158 17.7082 8.3975 17.7082 7.59916C17.7082 5.69914 16.6813 4.12088 15.3032 3.46223C13.9729 2.82644 12.1778 2.9874 10.4597 4.8539C10.3413 4.98246 10.1746 5.05561 9.99984 5.05561C9.8251 5.05561 9.65834 4.98246 9.54 4.8539C7.82184 2.9874 6.02675 2.82644 4.69649 3.46223ZM18.3516 10.666C18.7325 11.1931 18.9582 11.845 18.9582 12.5496C18.9582 13.8146 18.4001 14.7717 17.7002 15.5208C17.1451 16.115 16.4631 16.6138 15.8849 17.0368C15.7564 17.1308 15.6329 17.2211 15.5172 17.3078C15.2848 17.4819 15.0177 17.6813 14.743 17.8339C14.4678 17.9868 14.1299 18.125 13.7498 18.125C13.3698 18.125 13.0319 17.9868 12.7567 17.8339C12.4909 17.6863 12.2323 17.4949 12.0053 17.3249C11.4175 17.7478 10.7366 18.125 9.99984 18.125C9.41732 18.125 8.88367 17.8917 8.41999 17.6084C7.95538 17.3246 7.49715 16.9494 7.07042 16.5976C6.84442 16.4113 6.60638 16.2203 6.36069 16.0232C4.042 14.1627 1.0415 11.7552 1.0415 7.59916C1.0415 5.26197 2.30634 3.21915 4.15746 2.33442C5.91479 1.49452 8.07691 1.75165 9.99984 3.54394C11.9228 1.75165 14.0849 1.49452 15.8422 2.33442C17.6933 3.21915 18.9582 5.26197 18.9582 7.59916C18.9582 8.74156 18.7323 9.75613 18.3516 10.666ZM10.9338 10.7724C10.2714 11.0602 9.7915 11.742 9.7915 12.5496C9.7915 14.1186 11.0157 15.0481 12.3707 16.0406C12.4919 16.1294 12.6135 16.2187 12.7321 16.3075C12.9756 16.49 13.1756 16.6368 13.3636 16.7412C13.5511 16.8453 13.6715 16.875 13.7498 16.875C13.8282 16.875 13.9486 16.8453 14.136 16.7412C14.324 16.6368 14.5241 16.49 14.7676 16.3075C14.9065 16.2034 15.0461 16.1011 15.185 15.9992C15.7579 15.5792 16.3202 15.1669 16.7868 14.6675C17.3451 14.0699 17.7082 13.4031 17.7082 12.5496C17.7082 12.0192 17.5014 11.5429 17.1705 11.1963C16.8322 10.8418 16.3692 10.6276 15.8663 10.625C15.3702 10.6225 14.7799 10.8264 14.189 11.41C13.9456 11.6504 13.5541 11.6504 13.3107 11.41C12.4422 10.5523 11.5643 10.4984 10.9338 10.7724Z" fill="#1C274C"/>
</svg>
