<svg width="20" height="20" viewBox="0 0 20 20" fill="none" xmlns="http://www.w3.org/2000/svg">
<path fill-rule="evenodd" clip-rule="evenodd" d="M4.6868 3.68682C3.30431 4.31876 2.2915 5.82185 2.2915 7.61424C2.2915 9.4454 3.04085 10.8569 4.11508 12.0665C5.00044 13.0634 6.0722 13.8897 7.11744 14.6955C7.3657 14.8869 7.61246 15.0771 7.85488 15.2682C8.29324 15.6138 8.68427 15.9171 9.06118 16.1373C9.43829 16.3577 9.74184 16.4583 9.99984 16.4583C10.2578 16.4583 10.5614 16.3577 10.9385 16.1373C11.3154 15.9171 11.7064 15.6138 12.1448 15.2682C12.3872 15.0771 12.634 14.8869 12.8822 14.6955C13.9275 13.8897 14.9992 13.0634 15.8846 12.0665C16.9588 10.8569 17.7082 9.4454 17.7082 7.61424C17.7082 5.82185 16.6954 4.31876 15.3129 3.68682C13.9698 3.07288 12.1651 3.23547 10.4501 5.01727C10.3323 5.13968 10.1697 5.20885 9.99984 5.20885C9.82994 5.20885 9.66735 5.13968 9.54953 5.01727C7.83456 3.23547 6.02989 3.07288 4.6868 3.68682ZM9.99984 3.71567C8.07313 1.99186 5.91564 1.75071 4.16714 2.54995C2.32043 3.39409 1.0415 5.35418 1.0415 7.61424C1.0415 9.83551 1.96692 11.53 3.18044 12.8965C4.15223 13.9908 5.34169 14.9066 6.39219 15.7155C6.63033 15.8988 6.86132 16.0767 7.08102 16.2499C7.50788 16.5864 7.96612 16.9452 8.43052 17.2166C8.89472 17.4878 9.42451 17.7083 9.99984 17.7083C10.5752 17.7083 11.105 17.4878 11.5692 17.2166C12.0336 16.9452 12.4918 16.5864 12.9187 16.2499C13.1384 16.0767 13.3693 15.8988 13.6075 15.7155C14.658 14.9066 15.8474 13.9908 16.8192 12.8965C18.0328 11.53 18.9582 9.83551 18.9582 7.61424C18.9582 5.35418 17.6792 3.39409 15.8325 2.54995C14.084 1.75071 11.9266 1.99186 9.99984 3.71567Z" fill="#0C111C"/>
</svg>
