<svg width="20" height="20" viewBox="0 0 20 20" fill="none" xmlns="http://www.w3.org/2000/svg">
<path fill-rule="evenodd" clip-rule="evenodd" d="M15.561 3.05604C15.0297 3.15059 14.3304 3.38199 13.3102 3.72206L9.97688 4.83317C9.41321 5.02106 9.04054 5.14628 8.766 5.27399C8.50604 5.39493 8.39364 5.49226 8.32162 5.59218C8.24961 5.6921 8.19281 5.8295 8.16029 6.11437C8.12594 6.41521 8.125 6.80835 8.125 7.40252V9.13285L16.875 6.21618C16.8749 5.18152 16.8716 4.46691 16.7951 3.94556C16.7189 3.4262 16.5884 3.23919 16.4424 3.13399C16.2964 3.02878 16.0777 2.96406 15.561 3.05604ZM18.1168 4.99999C18.1066 4.52957 18.0836 4.11701 18.0319 3.76418C17.935 3.10363 17.7195 2.5136 17.1733 2.11993C16.6271 1.72627 15.9992 1.70839 15.3419 1.82538C14.7097 1.9379 13.9232 2.2001 12.9632 2.5201L9.5487 3.65828C9.02672 3.83225 8.58562 3.97927 8.23876 4.14063C7.87006 4.31215 7.55015 4.52473 7.30757 4.86129C7.06499 5.19785 6.96448 5.56857 6.91836 5.97259C6.8948 6.17891 6.88404 6.41025 6.87912 6.66665H6.875V7.2993C6.875 7.322 6.875 7.34485 6.875 7.36785L6.875 13.3331C6.35271 12.9408 5.7035 12.7083 5 12.7083C3.27411 12.7083 1.875 14.1074 1.875 15.8333C1.875 17.5592 3.27411 18.9583 5 18.9583C6.72589 18.9583 8.125 17.5592 8.125 15.8333V10.4505L16.875 7.53379V11.6664C16.3527 11.2741 15.7035 11.0417 15 11.0417C13.2741 11.0417 11.875 12.4408 11.875 14.1667C11.875 15.8925 13.2741 17.2917 15 17.2917C16.7259 17.2917 18.125 15.8925 18.125 14.1667V6.24047C18.125 6.21073 18.125 6.18115 18.125 6.15173V4.99999H18.1168ZM16.875 14.1667C16.875 13.1311 16.0355 12.2917 15 12.2917C13.9645 12.2917 13.125 13.1311 13.125 14.1667C13.125 15.2022 13.9645 16.0417 15 16.0417C16.0355 16.0417 16.875 15.2022 16.875 14.1667ZM6.875 15.8333C6.875 14.7978 6.03553 13.9583 5 13.9583C3.96447 13.9583 3.125 14.7978 3.125 15.8333C3.125 16.8689 3.96447 17.7083 5 17.7083C6.03553 17.7083 6.875 16.8689 6.875 15.8333Z" fill="#0C111C"/>
</svg>
