<svg width="18" height="20" viewBox="0 0 18 20" fill="none" xmlns="http://www.w3.org/2000/svg">
<path d="M17.2225 4.68475L9.66 0.54686C9.45794 0.435212 9.23086 0.376648 9 0.376648C8.76914 0.376648 8.54206 0.435212 8.34 0.54686L0.7775 4.68647C0.561529 4.80464 0.381245 4.97862 0.255474 5.19026C0.129703 5.40189 0.0630588 5.64341 0.0625 5.88959V14.1087C0.0630588 14.3548 0.129703 14.5964 0.255474 14.808C0.381245 15.0196 0.561529 15.1936 0.7775 15.3118L8.34 19.4514C8.54206 19.563 8.76914 19.6216 9 19.6216C9.23086 19.6216 9.45794 19.563 9.66 19.4514L17.2225 15.3118C17.4385 15.1936 17.6188 15.0196 17.7445 14.808C17.8703 14.5964 17.9369 14.3548 17.9375 14.1087V5.89045C17.9374 5.64383 17.871 5.40177 17.7452 5.18965C17.6194 4.97752 17.4389 4.80313 17.2225 4.68475ZM9 1.74998L15.9042 5.53123L13.3459 6.93202L6.44078 3.15077L9 1.74998ZM9 9.31248L2.09578 5.53123L5.00906 3.93623L11.9133 7.71749L9 9.31248ZM1.4375 6.73436L8.3125 10.4967V17.8693L1.4375 14.1095V6.73436ZM16.5625 14.1061L9.6875 17.8693V10.5001L12.4375 8.99538V12.0625C12.4375 12.2448 12.5099 12.4197 12.6389 12.5486C12.7678 12.6776 12.9427 12.75 13.125 12.75C13.3073 12.75 13.4822 12.6776 13.6111 12.5486C13.7401 12.4197 13.8125 12.2448 13.8125 12.0625V8.24256L16.5625 6.73436V14.1052V14.1061Z" fill="#7338B3"/>
</svg>
