<svg width="22" height="22" viewBox="0 0 22 22" fill="none" xmlns="http://www.w3.org/2000/svg">
<path d="M1.8335 14.3145C1.8335 15.0911 2.45847 15.7161 3.70842 16.966L5.03419 18.2918C6.28414 19.5417 6.90911 20.1667 7.68573 20.1667C8.46235 20.1667 9.08733 19.5417 10.3373 18.2918L18.2919 10.3372C19.5419 9.0872 20.1668 8.46223 20.1668 7.68561C20.1668 6.90899 19.5419 6.28402 18.2919 5.03407L16.9661 3.7083C15.7162 2.45835 15.0912 1.83337 14.3146 1.83337C13.6239 1.83337 13.0532 2.3277 12.0561 3.31634C12.0834 3.33654 12.1096 3.35901 12.1343 3.38378L13.4307 4.68014C13.6992 4.94863 13.6992 5.38393 13.4307 5.65241C13.1622 5.9209 12.7269 5.9209 12.4584 5.65241L11.1621 4.35605C11.1371 4.3311 11.1145 4.30472 11.0942 4.27716L10.1109 5.26044C10.1385 5.28075 10.1649 5.30337 10.1898 5.32832L12.1343 7.27286C12.4028 7.54135 12.4028 7.97665 12.1343 8.24514C11.8659 8.51362 11.4306 8.51362 11.1621 8.24514L9.21753 6.30059C9.19258 6.27565 9.16996 6.24926 9.14964 6.2217L8.16637 7.20498C8.19393 7.22529 8.22031 7.24792 8.24526 7.27286L9.54162 8.56923C9.81011 8.83771 9.81011 9.27301 9.54162 9.5415C9.27314 9.80998 8.83783 9.80998 8.56935 9.5415L7.27299 8.24514C7.24804 8.22019 7.22541 8.1938 7.2051 8.16624L6.22182 9.14952C6.24938 9.16983 6.27577 9.19246 6.30071 9.21741L8.24526 11.162C8.51374 11.4304 8.51374 11.8657 8.24526 12.1342C7.97677 12.4027 7.54147 12.4027 7.27299 12.1342L5.32844 10.1897C5.3035 10.1647 5.28087 10.1383 5.26056 10.1108L4.27728 11.0941C4.30484 11.1144 4.33123 11.137 4.35617 11.162L5.65253 12.4583C5.92102 12.7268 5.92102 13.1621 5.65253 13.4306C5.38405 13.6991 4.94875 13.6991 4.68026 13.4306L3.3839 12.1342C3.35914 12.1095 3.33666 12.0833 3.31646 12.0559C2.32782 13.053 1.8335 13.6238 1.8335 14.3145Z" fill="#BD00FF"/>
</svg>
