<svg width="22" height="22" viewBox="0 0 22 22" fill="none" xmlns="http://www.w3.org/2000/svg">
<path fill-rule="evenodd" clip-rule="evenodd" d="M11.0002 20.1667C16.0628 20.1667 20.1668 16.0627 20.1668 11C20.1668 5.93743 16.0628 1.83337 11.0002 1.83337C5.93755 1.83337 1.8335 5.93743 1.8335 11C1.8335 16.0627 5.93755 20.1667 11.0002 20.1667ZM7.69785 14.2573C7.92395 13.9523 8.35452 13.8883 8.65956 14.1144C9.3272 14.6093 10.1331 14.8959 11.0002 14.8959C11.8672 14.8959 12.6731 14.6093 13.3408 14.1144C13.6458 13.8883 14.0764 13.9523 14.3025 14.2573C14.5286 14.5623 14.4646 14.9929 14.1596 15.219C13.2682 15.8797 12.1781 16.2709 11.0002 16.2709C9.82227 16.2709 8.73214 15.8797 7.84077 15.219C7.53573 14.9929 7.47174 14.5623 7.69785 14.2573ZM14.6668 9.62504C14.6668 10.3844 14.2564 11 13.7502 11C13.2439 11 12.8335 10.3844 12.8335 9.62504C12.8335 8.86565 13.2439 8.25004 13.7502 8.25004C14.2564 8.25004 14.6668 8.86565 14.6668 9.62504ZM8.25016 11C8.75642 11 9.16683 10.3844 9.16683 9.62504C9.16683 8.86565 8.75642 8.25004 8.25016 8.25004C7.7439 8.25004 7.3335 8.86565 7.3335 9.62504C7.3335 10.3844 7.7439 11 8.25016 11Z" fill="#BD00FF"/>
</svg>
