<svg width="18" height="18" viewBox="0 0 18 18" fill="none" xmlns="http://www.w3.org/2000/svg">
<path fill-rule="evenodd" clip-rule="evenodd" d="M8.99992 5.87502C7.27403 5.87502 5.87492 7.27413 5.87492 9.00002C5.87492 10.7259 7.27403 12.125 8.99992 12.125C10.7258 12.125 12.1249 10.7259 12.1249 9.00002C12.1249 7.27413 10.7258 5.87502 8.99992 5.87502ZM7.12492 9.00002C7.12492 7.96449 7.96439 7.12502 8.99992 7.12502C10.0355 7.12502 10.8749 7.96449 10.8749 9.00002C10.8749 10.0356 10.0355 10.875 8.99992 10.875C7.96439 10.875 7.12492 10.0356 7.12492 9.00002Z" fill="#0C111C"/>
<path fill-rule="evenodd" clip-rule="evenodd" d="M8.97887 0.0416872C8.60849 0.0416811 8.29929 0.041676 8.04544 0.0589956C7.78119 0.0770252 7.53159 0.115894 7.2896 0.21613C6.72807 0.44872 6.28194 0.894848 6.04935 1.45637C5.92827 1.7487 5.89547 2.05678 5.88295 2.39166C5.87289 2.66085 5.73703 2.88545 5.53654 3.00119C5.33606 3.11694 5.07363 3.1223 4.83547 2.99642C4.5392 2.83983 4.25599 2.71418 3.94228 2.67288C3.33969 2.59355 2.73027 2.75684 2.24808 3.12684C2.04028 3.28629 1.88181 3.48302 1.73407 3.70286C1.59215 3.91403 1.43756 4.18181 1.25237 4.50257L1.23132 4.53903C1.04613 4.85978 0.891525 5.12755 0.779603 5.35605C0.663092 5.59391 0.571951 5.82951 0.537762 6.0892C0.45843 6.69178 0.621725 7.30121 0.991722 7.7834C1.18432 8.03439 1.43469 8.21682 1.71839 8.39508C1.94654 8.53843 2.07315 8.76845 2.07314 9C2.07313 9.23154 1.94652 9.46152 1.7184 9.60485C1.43466 9.78313 1.18426 9.96557 0.991641 10.2166C0.621643 10.6988 0.458349 11.3082 0.537681 11.9108C0.571869 12.1705 0.66301 12.4061 0.779521 12.6439C0.891442 12.8724 1.04604 13.1402 1.23123 13.4609L1.25229 13.4974C1.43747 13.8182 1.59207 14.086 1.73399 14.2971C1.88173 14.517 2.0402 14.7137 2.248 14.8731C2.73019 15.2431 3.33961 15.4064 3.9422 15.3271C4.25589 15.2858 4.53908 15.1602 4.83534 15.0036C5.07353 14.8777 5.33599 14.8831 5.53651 14.9988C5.73702 15.1146 5.87288 15.3392 5.88295 15.6084C5.89548 15.9433 5.92827 16.2514 6.04935 16.5437C6.28194 17.1052 6.72807 17.5513 7.2896 17.7839C7.53159 17.8841 7.78119 17.923 8.04544 17.941C8.29928 17.9584 8.60848 17.9584 8.97886 17.9584H9.02096C9.39134 17.9584 9.70054 17.9584 9.95438 17.941C10.2186 17.923 10.4682 17.8841 10.7102 17.7839C11.2718 17.5513 11.7179 17.1052 11.9505 16.5437C12.0716 16.2513 12.1044 15.9432 12.1169 15.6084C12.1269 15.3392 12.2628 15.1146 12.4633 14.9988C12.6638 14.883 12.9262 14.8777 13.1644 15.0035C13.4607 15.1601 13.7439 15.2857 14.0575 15.327C14.6601 15.4064 15.2696 15.2431 15.7517 14.8731C15.9595 14.7136 16.118 14.5169 16.2658 14.2971C16.4077 14.0859 16.5623 13.8181 16.7474 13.4974L16.7685 13.4609C16.9537 13.1402 17.1083 12.8724 17.2202 12.6439C17.3367 12.406 17.4279 12.1704 17.4621 11.9107C17.5414 11.3081 17.3781 10.6987 17.0081 10.2165C16.8155 9.96552 16.5651 9.78309 16.2814 9.60481C16.0533 9.46148 15.9267 9.2315 15.9267 8.99998C15.9267 8.76848 16.0533 8.53853 16.2814 8.39522C16.5651 8.21694 16.8156 8.03449 17.0082 7.78345C17.3782 7.30126 17.5415 6.69184 17.4621 6.08926C17.428 5.82957 17.3368 5.59397 17.2203 5.3561C17.1084 5.12763 16.9538 4.85988 16.7686 4.53915L16.7476 4.50267C16.5624 4.1819 16.4078 3.91409 16.2658 3.70291C16.1181 3.48308 15.9596 3.28635 15.7518 3.1269C15.2696 2.7569 14.6602 2.59361 14.0576 2.67294C13.7439 2.71424 13.4607 2.83987 13.1645 2.99645C12.9263 3.12234 12.6638 3.11699 12.4633 3.00122C12.2628 2.88546 12.1269 2.66083 12.1169 2.39161C12.1043 2.05676 12.0716 1.74869 11.9505 1.45637C11.7179 0.894848 11.2718 0.44872 10.7102 0.21613C10.4682 0.115894 10.2186 0.0770252 9.95438 0.0589956C9.70054 0.041676 9.39134 0.0416811 9.02095 0.0416872H8.97887ZM7.76795 1.37098C7.83224 1.34435 7.92992 1.31978 8.13053 1.3061C8.33675 1.29203 8.60308 1.29169 8.99991 1.29169C9.39675 1.29169 9.66307 1.29203 9.86929 1.3061C10.0699 1.31978 10.1676 1.34435 10.2319 1.37098C10.4871 1.4767 10.6899 1.67949 10.7956 1.93473C10.829 2.01524 10.8566 2.14075 10.8677 2.43833C10.8924 3.09864 11.2333 3.73443 11.8383 4.08376C12.4434 4.43308 13.1644 4.41036 13.7486 4.10159C14.0119 3.96243 14.1344 3.92362 14.2208 3.91224C14.4947 3.87618 14.7717 3.95041 14.9909 4.11859C15.0461 4.16095 15.1162 4.23327 15.2284 4.40015C15.3437 4.57171 15.4771 4.80219 15.6755 5.14585C15.8739 5.48953 16.0068 5.72034 16.0977 5.90597C16.1862 6.08654 16.2138 6.18341 16.2228 6.25241C16.2589 6.52631 16.1847 6.80332 16.0165 7.0225C15.9634 7.09165 15.8686 7.17835 15.6164 7.3368C15.0569 7.68831 14.6767 8.30131 14.6767 8.99991C14.6767 9.69859 15.0568 10.3117 15.6164 10.6632C15.8685 10.8217 15.9634 10.9083 16.0164 10.9775C16.1846 11.1967 16.2588 11.4737 16.2228 11.7476C16.2137 11.8166 16.1861 11.9134 16.0977 12.094C16.0067 12.2796 15.8739 12.5105 15.6754 12.8541C15.477 13.1978 15.3436 13.4283 15.2283 13.5998C15.1161 13.7667 15.046 13.839 14.9908 13.8814C14.7716 14.0496 14.4946 14.1238 14.2207 14.0877C14.1343 14.0764 14.0118 14.0376 13.7485 13.8984C13.1643 13.5896 12.4433 13.5669 11.8382 13.9163C11.2332 14.2656 10.8924 14.9014 10.8677 15.5616C10.8566 15.8593 10.829 15.9848 10.7956 16.0653C10.6899 16.3206 10.4871 16.5233 10.2319 16.6291C10.1676 16.6557 10.0699 16.6803 9.86929 16.6939C9.66307 16.708 9.39675 16.7084 8.99991 16.7084C8.60308 16.7084 8.33675 16.708 8.13053 16.6939C7.92992 16.6803 7.83224 16.6557 7.76795 16.6291C7.51271 16.5233 7.30993 16.3206 7.2042 16.0653C7.17086 15.9848 7.14321 15.8593 7.13208 15.5617C7.10738 14.9014 6.76656 14.2656 6.1615 13.9163C5.55645 13.567 4.83543 13.5897 4.25124 13.8985C3.98796 14.0376 3.86544 14.0764 3.77904 14.0878C3.50514 14.1239 3.22813 14.0496 3.00895 13.8815C2.95374 13.8391 2.88362 13.7668 2.77147 13.5999C2.65617 13.4283 2.52272 13.1979 2.3243 12.8542C2.12588 12.5105 1.99301 12.2797 1.90209 12.0941C1.81364 11.9135 1.78607 11.8166 1.77699 11.7476C1.74093 11.4737 1.81515 11.1967 1.98333 10.9775C2.03638 10.9084 2.13126 10.8217 2.38342 10.6633C2.94291 10.3117 3.3231 9.69871 3.32314 9.00007C3.32318 8.30136 2.94296 7.68825 2.38343 7.33667C2.13132 7.17826 2.03646 7.09157 1.98341 7.02244C1.81523 6.80327 1.74101 6.52626 1.77707 6.25235C1.78615 6.18336 1.81372 6.08648 1.90217 5.90591C1.99309 5.72028 2.12596 5.48947 2.32438 5.1458C2.5228 4.80213 2.65626 4.57165 2.77155 4.40009C2.88371 4.23321 2.95382 4.1609 3.00903 4.11853C3.22821 3.95035 3.50522 3.87613 3.77912 3.91219C3.86553 3.92356 3.98805 3.96238 4.25136 4.10155C4.83553 4.41031 5.55651 4.43304 6.16154 4.08373C6.76657 3.73442 7.10739 3.09866 7.13208 2.43837C7.14321 2.14076 7.17085 2.01524 7.2042 1.93473C7.30993 1.67949 7.51271 1.4767 7.76795 1.37098Z" fill="#0C111C"/>
</svg>
