<svg width="20" height="18" viewBox="0 0 20 18" fill="none" xmlns="http://www.w3.org/2000/svg">
<path d="M8.25 6.9375C8.25 6.75516 8.32243 6.5803 8.45136 6.45136C8.5803 6.32243 8.75516 6.25 8.9375 6.25H14.4375C14.6198 6.25 14.7947 6.32243 14.9236 6.45136C15.0526 6.5803 15.125 6.75516 15.125 6.9375C15.125 7.11984 15.0526 7.2947 14.9236 7.42364C14.7947 7.55257 14.6198 7.625 14.4375 7.625H8.9375C8.75516 7.625 8.5803 7.55257 8.45136 7.42364C8.32243 7.2947 8.25 7.11984 8.25 6.9375ZM8.9375 10.375H14.4375C14.6198 10.375 14.7947 10.3026 14.9236 10.1736C15.0526 10.0447 15.125 9.86984 15.125 9.6875C15.125 9.50516 15.0526 9.33029 14.9236 9.20136C14.7947 9.07243 14.6198 9 14.4375 9H8.9375C8.75516 9 8.5803 9.07243 8.45136 9.20136C8.32243 9.33029 8.25 9.50516 8.25 9.6875C8.25 9.86984 8.32243 10.0447 8.45136 10.1736C8.5803 10.3026 8.75516 10.375 8.9375 10.375ZM19.9375 14.5C19.9375 15.2293 19.6478 15.9288 19.132 16.4445C18.6163 16.9603 17.9168 17.25 17.1875 17.25H7.5625C6.83315 17.25 6.13368 16.9603 5.61796 16.4445C5.10223 15.9288 4.8125 15.2293 4.8125 14.5V3.5C4.8125 3.13533 4.66763 2.78559 4.40977 2.52773C4.15191 2.26987 3.80217 2.125 3.4375 2.125C3.07283 2.125 2.72309 2.26987 2.46523 2.52773C2.20737 2.78559 2.0625 3.13533 2.0625 3.5C2.0625 3.99328 2.47758 4.32672 2.48187 4.33016C2.59566 4.41772 2.67917 4.5387 2.7207 4.67614C2.76223 4.81358 2.75969 4.96057 2.71343 5.09649C2.66718 5.23241 2.57953 5.35043 2.46279 5.43401C2.34605 5.51759 2.20607 5.56252 2.0625 5.5625C1.91383 5.56276 1.76919 5.51414 1.65086 5.42414C1.55117 5.35109 0.6875 4.66961 0.6875 3.5C0.6875 2.77065 0.977231 2.07118 1.49296 1.55546C2.00868 1.03973 2.70815 0.75 3.4375 0.75H15.125C15.8543 0.75 16.5538 1.03973 17.0695 1.55546C17.5853 2.07118 17.875 2.77065 17.875 3.5V12.4375H18.5625C18.7113 12.4375 18.856 12.4857 18.975 12.575C19.0781 12.6489 19.9375 13.3304 19.9375 14.5ZM8.27234 12.9084C8.31932 12.7698 8.40897 12.6495 8.52845 12.565C8.64793 12.4804 8.79111 12.4357 8.9375 12.4375H16.5V3.5C16.5 3.13533 16.3551 2.78559 16.0973 2.52773C15.8394 2.26987 15.4897 2.125 15.125 2.125H5.81711C6.06026 2.5424 6.18809 3.01694 6.1875 3.5V14.5C6.1875 14.8647 6.33237 15.2144 6.59023 15.4723C6.84809 15.7301 7.19783 15.875 7.5625 15.875C7.92717 15.875 8.27691 15.7301 8.53477 15.4723C8.79263 15.2144 8.9375 14.8647 8.9375 14.5C8.9375 14.0067 8.52242 13.6733 8.51813 13.6698C8.40096 13.586 8.31383 13.4668 8.26958 13.3297C8.22533 13.1926 8.2263 13.0449 8.27234 12.9084ZM18.5625 14.5C18.5539 14.2453 18.4556 14.0018 18.2849 13.8125H10.2068C10.2759 14.0351 10.311 14.2669 10.3108 14.5C10.3114 14.9828 10.1842 15.4573 9.94211 15.875H17.1875C17.5522 15.875 17.9019 15.7301 18.1598 15.4723C18.4176 15.2144 18.5625 14.8647 18.5625 14.5Z" fill="#F99007"/>
</svg>
