<svg width="20" height="20" viewBox="0 0 20 20" fill="none" xmlns="http://www.w3.org/2000/svg">
<path d="M10 6.04169C10.3452 6.04169 10.625 6.32151 10.625 6.66669V10C10.625 10.3452 10.3452 10.625 10 10.625C9.65482 10.625 9.375 10.3452 9.375 10V6.66669C9.375 6.32151 9.65482 6.04169 10 6.04169Z" fill="#0C111C"/>
<path d="M10 13.3334C10.4602 13.3334 10.8333 12.9603 10.8333 12.5C10.8333 12.0398 10.4602 11.6667 10 11.6667C9.53976 11.6667 9.16667 12.0398 9.16667 12.5C9.16667 12.9603 9.53976 13.3334 10 13.3334Z" fill="#0C111C"/>
<path fill-rule="evenodd" clip-rule="evenodd" d="M7.26949 1.70928C8.47277 1.29717 9.21873 1.04169 10 1.04169C10.7813 1.04169 11.5272 1.29717 12.7305 1.70928L13.3367 1.9168C14.5711 2.33935 15.5238 2.66546 16.2058 2.94251C16.5493 3.08207 16.8447 3.21724 17.0825 3.35536C17.3114 3.48827 17.541 3.65405 17.697 3.8763C17.8512 4.09599 17.9309 4.36606 17.981 4.62604C18.0331 4.89632 18.0645 5.22055 18.0847 5.59282C18.125 6.33202 18.125 7.34469 18.125 8.6582V9.99282C18.125 15.077 14.285 17.5146 12.0014 18.5122L11.9788 18.522C11.6957 18.6458 11.4295 18.7621 11.1237 18.8403C10.8008 18.923 10.4577 18.9584 10 18.9584C9.54228 18.9584 9.19922 18.923 8.87634 18.8403C8.57051 18.7621 8.30436 18.6458 8.02119 18.522L7.99861 18.5122C5.71502 17.5146 1.875 15.077 1.875 9.99282V8.65827C1.875 7.34474 1.875 6.33203 1.91525 5.59282C1.93552 5.22055 1.96693 4.89632 2.01901 4.62604C2.06911 4.36606 2.14884 4.09599 2.30303 3.8763C2.45902 3.65405 2.68862 3.48827 2.91748 3.35536C3.15531 3.21724 3.45065 3.08207 3.79419 2.94251C4.47617 2.66546 5.42885 2.33935 6.66329 1.9168L7.26949 1.70928ZM10 2.29169C9.45188 2.29169 8.91262 2.46805 7.56718 2.9286L7.08984 3.092C5.82934 3.52347 4.91008 3.83839 4.26466 4.10059C3.9425 4.23147 3.70908 4.34114 3.54524 4.4363C3.46435 4.48327 3.40861 4.52203 3.37139 4.55229C3.33983 4.57795 3.3278 4.59247 3.32608 4.59459C3.32446 4.59721 3.31411 4.61452 3.29952 4.65547C3.28287 4.70223 3.26441 4.76926 3.24643 4.86257C3.21003 5.05143 3.18245 5.31086 3.1634 5.66078C3.12523 6.36178 3.125 7.3403 3.125 8.68057V9.99282C3.125 14.3054 6.34991 16.4279 8.49899 17.3667C8.80856 17.5019 8.98732 17.5784 9.18633 17.6294C9.3764 17.678 9.60833 17.7084 10 17.7084C10.3917 17.7084 10.6236 17.6781 10.8137 17.6294C11.0127 17.5784 11.1914 17.5019 11.501 17.3667C13.6501 16.4279 16.875 14.3054 16.875 9.99282V8.68057C16.875 7.3403 16.8748 6.36178 16.8366 5.66078C16.8175 5.31086 16.79 5.05143 16.7536 4.86257C16.7356 4.76926 16.7171 4.70223 16.7005 4.65547C16.6859 4.61449 16.6755 4.59718 16.6739 4.59459C16.6722 4.59245 16.6601 4.57793 16.6286 4.55229C16.5914 4.52203 16.5356 4.48327 16.4548 4.4363C16.2909 4.34114 16.0575 4.23147 15.7353 4.10059C15.0899 3.83839 14.1707 3.52347 12.9102 3.092L12.4328 2.9286C11.0874 2.46805 10.5481 2.29169 10 2.29169Z" fill="#0C111C"/>
</svg>
