<svg width="18" height="20" viewBox="0 0 18 20" fill="none" xmlns="http://www.w3.org/2000/svg">
<path d="M17.2225 4.68457L9.66 0.546677C9.45794 0.435029 9.23086 0.376465 9 0.376465C8.76914 0.376465 8.54206 0.435029 8.34 0.546677L0.7775 4.68629C0.561529 4.80445 0.381245 4.97844 0.255474 5.19007C0.129703 5.40171 0.0630588 5.64323 0.0625 5.88941V14.1085C0.0630588 14.3547 0.129703 14.5962 0.255474 14.8078C0.381245 15.0194 0.561529 15.1934 0.7775 15.3116L8.34 19.4512C8.54206 19.5629 8.76914 19.6214 9 19.6214C9.23086 19.6214 9.45794 19.5629 9.66 19.4512L17.2225 15.3116C17.4385 15.1934 17.6188 15.0194 17.7445 14.8078C17.8703 14.5962 17.9369 14.3547 17.9375 14.1085V5.89027C17.9374 5.64365 17.871 5.40159 17.7452 5.18946C17.6194 4.97734 17.4389 4.80295 17.2225 4.68457ZM9 1.7498L15.9042 5.53105L13.3459 6.93183L6.44078 3.15058L9 1.7498ZM9 9.3123L2.09578 5.53105L5.00906 3.93605L11.9133 7.7173L9 9.3123ZM1.4375 6.73418L8.3125 10.4965V17.8691L1.4375 14.1093V6.73418ZM16.5625 14.1059L9.6875 17.8691V10.5L12.4375 8.99519V12.0623C12.4375 12.2446 12.5099 12.4195 12.6389 12.5484C12.7678 12.6774 12.9427 12.7498 13.125 12.7498C13.3073 12.7498 13.4822 12.6774 13.6111 12.5484C13.7401 12.4195 13.8125 12.2446 13.8125 12.0623V8.24238L16.5625 6.73418V14.105V14.1059Z" fill="#7338B3"/>
</svg>
