<svg width="18" height="18" viewBox="0 0 18 18" fill="none" xmlns="http://www.w3.org/2000/svg">
<path d="M9 0.0625C7.23233 0.0625 5.50436 0.586675 4.0346 1.56874C2.56483 2.55081 1.41929 3.94665 0.742831 5.57977C0.0663725 7.21288 -0.11062 9.00992 0.234236 10.7436C0.579091 12.4773 1.43031 14.0698 2.68024 15.3198C3.93017 16.5697 5.52268 17.4209 7.25638 17.7658C8.99009 18.1106 10.7871 17.9336 12.4202 17.2572C14.0534 16.5807 15.4492 15.4352 16.4313 13.9654C17.4133 12.4956 17.9375 10.7677 17.9375 9C17.935 6.6304 16.9926 4.35856 15.317 2.683C13.6414 1.00743 11.3696 0.0650023 9 0.0625ZM4.36625 14.9727C4.8636 14.1948 5.54876 13.5547 6.35856 13.1113C7.16836 12.6679 8.07676 12.4355 9 12.4355C9.92325 12.4355 10.8316 12.6679 11.6414 13.1113C12.4512 13.5547 13.1364 14.1948 13.6338 14.9727C12.3089 16.003 10.6784 16.5624 9 16.5624C7.32162 16.5624 5.69112 16.003 4.36625 14.9727ZM6.25 8.3125C6.25 7.7686 6.41129 7.23692 6.71346 6.78468C7.01564 6.33245 7.44513 5.97997 7.94762 5.77183C8.45012 5.56369 9.00305 5.50923 9.5365 5.61534C10.07 5.72145 10.56 5.98336 10.9445 6.36796C11.3291 6.75255 11.5911 7.24255 11.6972 7.776C11.8033 8.30945 11.7488 8.86238 11.5407 9.36488C11.3325 9.86738 10.9801 10.2969 10.5278 10.599C10.0756 10.9012 9.5439 11.0625 9 11.0625C8.27066 11.0625 7.57119 10.7728 7.05546 10.257C6.53974 9.74132 6.25 9.04185 6.25 8.3125ZM14.6513 14.0196C13.8845 12.9085 12.8063 12.0489 11.5523 11.5489C12.2259 11.0184 12.7175 10.2911 12.9586 9.46827C13.1997 8.64543 13.1784 7.76791 12.8976 6.95773C12.6169 6.14756 12.0906 5.44501 11.3921 4.94778C10.6936 4.45055 9.85744 4.18336 9 4.18336C8.14257 4.18336 7.30644 4.45055 6.6079 4.94778C5.90936 5.44501 5.38313 6.14756 5.10238 6.95773C4.82164 7.76791 4.80034 8.64543 5.04144 9.46827C5.28254 10.2911 5.77407 11.0184 6.44766 11.5489C5.19368 12.0489 4.11552 12.9085 3.34875 14.0196C2.37987 12.9301 1.7466 11.5837 1.5252 10.1425C1.3038 8.70142 1.50372 7.22702 2.10087 5.89688C2.69802 4.56675 3.66696 3.43759 4.89099 2.64538C6.11503 1.85318 7.54197 1.4317 9 1.4317C10.458 1.4317 11.885 1.85318 13.109 2.64538C14.3331 3.43759 15.302 4.56675 15.8991 5.89688C16.4963 7.22702 16.6962 8.70142 16.4748 10.1425C16.2534 11.5837 15.6201 12.9301 14.6513 14.0196Z" fill="#F85A40"/>
</svg>
