<svg width="24" height="24" viewBox="0 0 24 24" fill="none" xmlns="http://www.w3.org/2000/svg">
<path d="M23.25 12.0002C23.2547 13.7863 22.6753 15.525 21.6 16.9512C21.5408 17.03 21.4667 17.0963 21.3818 17.1465C21.2969 17.1966 21.203 17.2295 21.1054 17.2434C21.0079 17.2572 20.9085 17.2517 20.813 17.2271C20.7176 17.2026 20.6279 17.1595 20.5491 17.1002C20.4703 17.041 20.4039 16.9669 20.3538 16.882C20.3037 16.7971 20.2708 16.7032 20.2569 16.6056C20.2431 16.5081 20.2486 16.4087 20.2731 16.3132C20.2977 16.2178 20.3408 16.1281 20.4 16.0493C21.2802 14.8833 21.7543 13.4611 21.75 12.0002C21.75 10.21 21.0389 8.49314 19.773 7.22727C18.5071 5.9614 16.7902 5.25024 15 5.25024C13.2098 5.25024 11.4929 5.9614 10.2271 7.22727C8.96119 8.49314 8.25004 10.21 8.25004 12.0002C8.25004 12.1992 8.17102 12.3899 8.03037 12.5306C7.88971 12.6712 7.69895 12.7502 7.50004 12.7502C7.30112 12.7502 7.11036 12.6712 6.96971 12.5306C6.82905 12.3899 6.75004 12.1992 6.75004 12.0002C6.74967 11.2434 6.85346 10.4901 7.05847 9.76149C6.95629 9.75024 6.85316 9.75024 6.75004 9.75024C5.55656 9.75024 4.41197 10.2243 3.56806 11.0683C2.72414 11.9122 2.25004 13.0568 2.25004 14.2502C2.25004 15.4437 2.72414 16.5883 3.56806 17.4322C4.41197 18.2761 5.55656 18.7502 6.75004 18.7502H9.00004C9.19895 18.7502 9.38971 18.8293 9.53037 18.9699C9.67102 19.1106 9.75004 19.3013 9.75004 19.5002C9.75004 19.6992 9.67102 19.8899 9.53037 20.0306C9.38971 20.1712 9.19895 20.2502 9.00004 20.2502H6.75004C5.9252 20.2504 5.10918 20.0805 4.35295 19.7512C3.59672 19.4219 2.91652 18.9401 2.35482 18.3361C1.79313 17.7321 1.36201 17.0187 1.0884 16.2406C0.814779 15.4624 0.704541 14.6363 0.764566 13.8136C0.824591 12.991 1.05359 12.1895 1.43726 11.4593C1.82093 10.7292 2.35103 10.086 2.99446 9.56986C3.63788 9.05376 4.38081 8.67587 5.17684 8.45978C5.97287 8.2437 6.8049 8.19407 7.62097 8.31399C8.45197 6.65195 9.81973 5.31912 11.5027 4.5314C13.1857 3.74367 15.0853 3.54718 16.8939 3.97375C18.7025 4.40032 20.3141 5.42496 21.4677 6.88172C22.6213 8.33848 23.2493 10.142 23.25 12.0002ZM14.7807 11.4696C14.711 11.3999 14.6283 11.3446 14.5372 11.3068C14.4462 11.2691 14.3486 11.2497 14.25 11.2497C14.1515 11.2497 14.0539 11.2691 13.9628 11.3068C13.8718 11.3446 13.7891 11.3999 13.7194 11.4696L10.7194 14.4696C10.6497 14.5393 10.5945 14.622 10.5567 14.7131C10.519 14.8041 10.4996 14.9017 10.4996 15.0002C10.4996 15.0988 10.519 15.1964 10.5567 15.2874C10.5945 15.3785 10.6497 15.4612 10.7194 15.5309C10.8601 15.6716 11.051 15.7507 11.25 15.7507C11.3486 15.7507 11.4462 15.7312 11.5372 15.6935C11.6283 15.6558 11.711 15.6005 11.7807 15.5309L13.5 13.8106V19.5002C13.5 19.6992 13.5791 19.8899 13.7197 20.0306C13.8604 20.1712 14.0511 20.2502 14.25 20.2502C14.4489 20.2502 14.6397 20.1712 14.7804 20.0306C14.921 19.8899 15 19.6992 15 19.5002V13.8106L16.7194 15.5309C16.7891 15.6005 16.8718 15.6558 16.9629 15.6935C17.0539 15.7312 17.1515 15.7507 17.25 15.7507C17.3486 15.7507 17.4462 15.7312 17.5372 15.6935C17.6283 15.6558 17.711 15.6005 17.7807 15.5309C17.8503 15.4612 17.9056 15.3785 17.9433 15.2874C17.981 15.1964 18.0005 15.0988 18.0005 15.0002C18.0005 14.9017 17.981 14.8041 17.9433 14.7131C17.9056 14.622 17.8503 14.5393 17.7807 14.4696L14.7807 11.4696Z" fill="#64748B"/>
</svg>
