<svg width="20" height="20" viewBox="0 0 20 20" fill="none" xmlns="http://www.w3.org/2000/svg">
<path d="M17.2711 11.282C16.807 9.47713 15.692 7.90751 14.1406 6.875H18.75C18.9157 6.875 19.0747 6.80916 19.1919 6.69195C19.3091 6.57474 19.375 6.41576 19.375 6.25C19.375 6.08424 19.3091 5.92527 19.1919 5.80806C19.0747 5.69085 18.9157 5.625 18.75 5.625H12.4219C12.2842 5.08724 11.9714 4.61061 11.5329 4.27023C11.0944 3.92985 10.5551 3.7451 9.99998 3.7451C9.44487 3.7451 8.90555 3.92985 8.46705 4.27023C8.02854 4.61061 7.71579 5.08724 7.5781 5.625H1.24998C1.08422 5.625 0.925247 5.69085 0.808037 5.80806C0.690827 5.92527 0.624979 6.08424 0.624979 6.25C0.624979 6.41576 0.690827 6.57474 0.808037 6.69195C0.925247 6.80916 1.08422 6.875 1.24998 6.875H5.85935C4.30792 7.90751 3.19296 9.47713 2.72888 11.282C2.12879 11.3778 1.58411 11.6888 1.1967 12.157C0.809289 12.6252 0.605676 13.2185 0.623932 13.8259C0.642188 14.4333 0.881062 15.0133 1.29589 15.4574C1.71072 15.9015 2.27309 16.1792 2.87786 16.2388C3.48262 16.2983 4.08837 16.1355 4.58184 15.7809C5.0753 15.4262 5.42269 14.904 5.55905 14.3118C5.69541 13.7196 5.6114 13.098 5.32274 12.5632C5.03407 12.0285 4.56051 11.6172 3.9906 11.4063C4.25895 10.481 4.736 9.62972 5.38504 8.91784C6.03408 8.20595 6.8378 7.65247 7.73435 7.3C7.93495 7.73253 8.25503 8.09867 8.65688 8.35526C9.05872 8.61185 9.52555 8.74819 10.0023 8.74819C10.4791 8.74819 10.9459 8.61185 11.3478 8.35526C11.7496 8.09867 12.0697 7.73253 12.2703 7.3C13.166 7.65306 13.9688 8.2068 14.617 8.91866C15.2652 9.63051 15.7415 10.4815 16.0094 11.4063C15.4392 11.6165 14.9651 12.0272 14.6758 12.5616C14.3864 13.096 14.3016 13.7175 14.4373 14.3098C14.5729 14.9022 14.9196 15.4249 15.4127 15.7802C15.9057 16.1354 16.5113 16.299 17.1161 16.2402C17.7209 16.1814 18.2837 15.9043 18.699 15.4607C19.1144 15.0171 19.354 14.4374 19.373 13.83C19.392 13.2226 19.1891 12.6291 18.8022 12.1604C18.4154 11.6918 17.8711 11.3801 17.2711 11.2836V11.282ZM4.37498 13.75C4.37498 13.9972 4.30167 14.2389 4.16432 14.4445C4.02696 14.65 3.83174 14.8102 3.60333 14.9049C3.37493 14.9995 3.12359 15.0242 2.88112 14.976C2.63864 14.9278 2.41591 14.8087 2.2411 14.6339C2.06628 14.4591 1.94723 14.2363 1.899 13.9939C1.85077 13.7514 1.87552 13.5001 1.97013 13.2716C2.06474 13.0432 2.22495 12.848 2.43052 12.7107C2.63608 12.5733 2.87775 12.5 3.12498 12.5C3.4565 12.5 3.77444 12.6317 4.00886 12.8661C4.24328 13.1005 4.37498 13.4185 4.37498 13.75ZM9.99998 7.5C9.75275 7.5 9.51108 7.42669 9.30552 7.28934C9.09995 7.15199 8.93974 6.95677 8.84513 6.72836C8.75052 6.49995 8.72577 6.24862 8.774 6.00614C8.82223 5.76366 8.94128 5.54094 9.1161 5.36612C9.29091 5.19131 9.51364 5.07225 9.75612 5.02402C9.99859 4.97579 10.2499 5.00054 10.4783 5.09515C10.7067 5.18976 10.902 5.34998 11.0393 5.55554C11.1767 5.7611 11.25 6.00278 11.25 6.25C11.25 6.58152 11.1183 6.89947 10.8839 7.13389C10.6494 7.36831 10.3315 7.5 9.99998 7.5ZM16.875 15C16.6278 15 16.3861 14.9267 16.1805 14.7893C15.975 14.652 15.8147 14.4568 15.7201 14.2284C15.6255 13.9999 15.6008 13.7486 15.649 13.5061C15.6972 13.2637 15.8163 13.0409 15.9911 12.8661C16.1659 12.6913 16.3886 12.5723 16.6311 12.524C16.8736 12.4758 17.1249 12.5005 17.3533 12.5952C17.5817 12.6898 17.777 12.85 17.9143 13.0555C18.0517 13.2611 18.125 13.5028 18.125 13.75C18.125 14.0815 17.9933 14.3995 17.7589 14.6339C17.5244 14.8683 17.2065 15 16.875 15Z" fill="#343A46"/>
</svg>
