<svg width="20" height="20" viewBox="0 0 20 20" fill="none" xmlns="http://www.w3.org/2000/svg">
<path d="M5.62501 6.87499V3.12499C5.62501 2.95923 5.69085 2.80026 5.80806 2.68305C5.92527 2.56584 6.08425 2.49999 6.25001 2.49999C6.41577 2.49999 6.57474 2.56584 6.69195 2.68305C6.80916 2.80026 6.87501 2.95923 6.87501 3.12499V6.87499C6.87501 7.04075 6.80916 7.19972 6.69195 7.31694C6.57474 7.43415 6.41577 7.49999 6.25001 7.49999C6.08425 7.49999 5.92527 7.43415 5.80806 7.31694C5.69085 7.19972 5.62501 7.04075 5.62501 6.87499ZM16.875 3.12499V17.5C16.875 17.6658 16.8092 17.8247 16.6919 17.9419C16.5747 18.0591 16.4158 18.125 16.25 18.125C16.0842 18.125 15.9253 18.0591 15.8081 17.9419C15.6909 17.8247 15.625 17.6658 15.625 17.5V13.75H11.875C11.7092 13.75 11.5503 13.6841 11.4331 13.5669C11.3159 13.4497 11.25 13.2908 11.25 13.125C11.279 11.6279 11.4681 10.1381 11.8141 8.68124C12.5781 5.51796 14.0266 3.39765 16.0039 2.55077C16.099 2.51006 16.2026 2.49357 16.3056 2.50276C16.4086 2.51196 16.5077 2.54656 16.594 2.60346C16.6803 2.66037 16.7512 2.7378 16.8002 2.82882C16.8493 2.91984 16.875 3.0216 16.875 3.12499ZM15.625 4.21093C13.1117 6.13046 12.6195 10.8062 12.5234 12.5H15.625V4.21093ZM9.36641 3.02265C9.35417 2.94058 9.32571 2.86177 9.28269 2.79082C9.23968 2.71987 9.18296 2.65819 9.11586 2.60939C9.04875 2.56059 8.9726 2.52564 8.89184 2.50657C8.81109 2.48751 8.72735 2.48472 8.6455 2.49836C8.56366 2.512 8.48535 2.5418 8.41514 2.58602C8.34493 2.63025 8.28423 2.68801 8.23658 2.75594C8.18893 2.82386 8.15529 2.9006 8.13761 2.98167C8.11992 3.06274 8.11856 3.14652 8.1336 3.22812L8.75001 6.92421C8.75001 7.58725 8.48661 8.22314 8.01777 8.69198C7.54893 9.16082 6.91305 9.42421 6.25001 9.42421C5.58696 9.42421 4.95108 9.16082 4.48224 8.69198C4.0134 8.22314 3.75001 7.58725 3.75001 6.92421L4.36563 3.22812C4.38067 3.14652 4.37931 3.06274 4.36162 2.98167C4.34394 2.9006 4.3103 2.82386 4.26265 2.75594C4.215 2.68801 4.1543 2.63025 4.08409 2.58602C4.01389 2.5418 3.93558 2.512 3.85373 2.49836C3.77188 2.48472 3.68814 2.48751 3.60739 2.50657C3.52663 2.52564 3.45048 2.56059 3.38338 2.60939C3.31627 2.65819 3.25955 2.71987 3.21654 2.79082C3.17352 2.86177 3.14506 2.94058 3.13282 3.02265L2.50782 6.77265C2.50247 6.8065 2.49986 6.84072 2.50001 6.87499C2.50125 7.76078 2.81557 8.61762 3.3874 9.2941C3.95924 9.97058 4.75179 10.4232 5.62501 10.5719V17.5C5.62501 17.6658 5.69085 17.8247 5.80806 17.9419C5.92527 18.0591 6.08425 18.125 6.25001 18.125C6.41577 18.125 6.57474 18.0591 6.69195 17.9419C6.80916 17.8247 6.87501 17.6658 6.87501 17.5V10.5719C7.74822 10.4232 8.54077 9.97058 9.11261 9.2941C9.68445 8.61762 9.99876 7.76078 10 6.87499C9.9999 6.8407 9.99702 6.80648 9.99141 6.77265L9.36641 3.02265Z" fill="#343A46"/>
</svg>
