<svg width="20" height="20" viewBox="0 0 20 20" fill="none" xmlns="http://www.w3.org/2000/svg">
<path fill-rule="evenodd" clip-rule="evenodd" d="M9.99984 2.29166C5.74264 2.29166 2.2915 5.74279 2.2915 9.99999C2.2915 14.2572 5.74264 17.7083 9.99984 17.7083C14.257 17.7083 17.7082 14.2572 17.7082 9.99999C17.7082 5.74279 14.257 2.29166 9.99984 2.29166ZM1.0415 9.99999C1.0415 5.05244 5.05229 1.04166 9.99984 1.04166C14.9474 1.04166 18.9582 5.05244 18.9582 9.99999C18.9582 14.9475 14.9474 18.9583 9.99984 18.9583C5.05229 18.9583 1.0415 14.9475 1.0415 9.99999ZM9.99984 4.37499C10.345 4.37499 10.6248 4.65481 10.6248 4.99999V5.26394C11.9835 5.50721 13.1248 6.528 13.1248 7.91666C13.1248 8.26184 12.845 8.54166 12.4998 8.54166C12.1547 8.54166 11.8748 8.26184 11.8748 7.91666C11.8748 7.35127 11.4048 6.75282 10.6248 6.53956V9.4306C11.9835 9.67388 13.1248 10.6947 13.1248 12.0833C13.1248 13.472 11.9835 14.4928 10.6248 14.736V15C10.6248 15.3452 10.345 15.625 9.99984 15.625C9.65466 15.625 9.37484 15.3452 9.37484 15V14.736C8.01614 14.4928 6.87484 13.472 6.87484 12.0833C6.87484 11.7381 7.15466 11.4583 7.49984 11.4583C7.84502 11.4583 8.12484 11.7381 8.12484 12.0833C8.12484 12.6487 8.59492 13.2472 9.37484 13.4604V10.5694C8.01615 10.3261 6.87484 9.30532 6.87484 7.91666C6.87484 6.528 8.01615 5.50721 9.37484 5.26394V4.99999C9.37484 4.65481 9.65466 4.37499 9.99984 4.37499ZM9.37484 6.53956C8.59492 6.75282 8.12484 7.35127 8.12484 7.91666C8.12484 8.48204 8.59492 9.0805 9.37484 9.29376V6.53956ZM10.6248 10.7062V13.4604C11.4048 13.2472 11.8748 12.6487 11.8748 12.0833C11.8748 11.5179 11.4048 10.9195 10.6248 10.7062Z" fill="#6B7280"/>
</svg>
