<svg width="20" height="20" viewBox="0 0 20 20" fill="none" xmlns="http://www.w3.org/2000/svg">
<path fill-rule="evenodd" clip-rule="evenodd" d="M7.67189 2.65158C7.46178 2.71815 7.25428 2.7938 7.04999 2.87842C6.11477 3.2658 5.26501 3.83359 4.54922 4.54937C3.83344 5.26516 3.26565 6.11492 2.87827 7.05014C2.57084 7.79234 2.38181 8.57682 2.31688 9.37499H6.05062C6.07729 8.46174 6.16232 7.56174 6.30365 6.7088C6.47692 5.66298 6.73293 4.69927 7.06252 3.87531C7.24246 3.42546 7.44576 3.01367 7.67189 2.65158ZM9.99984 1.04166C8.82341 1.04166 7.65851 1.27337 6.57163 1.72357C5.48476 2.17377 4.4972 2.83363 3.66534 3.66549C2.83348 4.49735 2.17362 5.48491 1.72342 6.57178C1.27322 7.65866 1.0415 8.82356 1.0415 9.99999C1.0415 11.1764 1.27322 12.3413 1.72342 13.4282C2.17361 14.5151 2.83348 15.5026 3.66534 16.3345C4.4972 17.1663 5.48476 17.8262 6.57163 18.2764C7.65851 18.7266 8.82341 18.9583 9.99984 18.9583C11.1763 18.9583 12.3412 18.7266 13.428 18.2764C14.5149 17.8262 15.5025 17.1663 16.3343 16.3345C17.1662 15.5026 17.8261 14.5151 18.2763 13.4282C18.7265 12.3413 18.9582 11.1764 18.9582 9.99999C18.9582 8.82357 18.7265 7.65866 18.2763 6.57179C17.8261 5.48491 17.1662 4.49735 16.3343 3.66549C15.5025 2.83363 14.5149 2.17377 13.428 1.72357C12.3412 1.27337 11.1763 1.04166 9.99984 1.04166ZM9.99984 2.29166C9.78212 2.29166 9.50086 2.39648 9.17381 2.73515C8.84435 3.07633 8.51452 3.61104 8.22311 4.33955C7.93364 5.06324 7.69859 5.93685 7.53683 6.91312C7.40706 7.6964 7.32747 8.5276 7.30118 9.37499L12.6985 9.37499C12.6722 8.5276 12.5926 7.6964 12.4628 6.91312C12.3011 5.93685 12.066 5.06324 11.7766 4.33955C11.4852 3.61104 11.1553 3.07633 10.8259 2.73515C10.4988 2.39648 10.2176 2.29166 9.99984 2.29166ZM13.9491 9.37499C13.9224 8.46174 13.8373 7.56175 13.696 6.7088C13.5228 5.66298 13.2667 4.69927 12.9372 3.87532C12.7572 3.42546 12.5539 3.01367 12.3278 2.65158C12.5379 2.71815 12.7454 2.7938 12.9497 2.87842C13.8849 3.2658 14.7347 3.83359 15.4505 4.54938C16.1662 5.26516 16.734 6.11492 17.1214 7.05014C17.4288 7.79234 17.6179 8.57682 17.6828 9.37499H13.9491ZM12.6985 10.625L7.30118 10.625C7.32747 11.4724 7.40706 12.3036 7.53683 13.0869C7.69859 14.0631 7.93364 14.9367 8.22311 15.6604C8.51452 16.3889 8.84435 16.9237 9.17381 17.2648C9.50086 17.6035 9.78212 17.7083 9.99984 17.7083C10.2176 17.7083 10.4988 17.6035 10.8259 17.2648C11.1553 16.9237 11.4852 16.3889 11.7766 15.6604C12.066 14.9367 12.3011 14.0631 12.4628 13.0869C12.5926 12.3036 12.6722 11.4724 12.6985 10.625ZM12.3278 17.3484C12.5539 16.9863 12.7572 16.5745 12.9372 16.1247C13.2667 15.3007 13.5228 14.337 13.696 13.2912C13.8374 12.4382 13.9224 11.5382 13.9491 10.625H17.6828C17.6179 11.4232 17.4288 12.2076 17.1214 12.9498C16.734 13.8851 16.1662 14.7348 15.4505 15.4506C14.7347 16.1664 13.8849 16.7342 12.9497 17.1216C12.7454 17.2062 12.5379 17.2818 12.3278 17.3484ZM7.67189 17.3484C7.44576 16.9863 7.24246 16.5745 7.06252 16.1247C6.73293 15.3007 6.47692 14.337 6.30365 13.2912C6.16232 12.4382 6.07729 11.5382 6.05062 10.625H2.31688C2.38181 11.4232 2.57084 12.2076 2.87827 12.9498C3.26565 13.8851 3.83344 14.7348 4.54922 15.4506C5.26501 16.1664 6.11477 16.7342 7.04999 17.1216C7.25428 17.2062 7.46178 17.2818 7.67189 17.3484Z" fill="#0C111C"/>
</svg>
