<svg width="22" height="22" viewBox="0 0 22 22" fill="none" xmlns="http://www.w3.org/2000/svg">
<path d="M20.2632 7.64845L11.3257 2.83595C11.2256 2.7821 11.1137 2.75391 11 2.75391C10.8863 2.75391 10.7744 2.7821 10.6743 2.83595L1.7368 7.64845C1.62801 7.70697 1.537 7.79372 1.47333 7.89958C1.40967 8.00543 1.3757 8.12649 1.375 8.25002V13.75C1.37493 13.8743 1.40853 13.9962 1.47224 14.1029C1.53594 14.2096 1.62737 14.297 1.7368 14.3559L10.6743 19.1684C10.7744 19.2222 10.8863 19.2504 11 19.2504C11.1137 19.2504 11.2256 19.2222 11.3257 19.1684L20.2632 14.3559C20.3726 14.297 20.4641 14.2096 20.5278 14.1029C20.5915 13.9962 20.6251 13.8743 20.625 13.75V8.25002C20.6243 8.12649 20.5903 8.00543 20.5267 7.89958C20.463 7.79372 20.372 7.70697 20.2632 7.64845ZM19.25 12.5993L16.2809 11L19.25 9.40072V12.5993ZM14.8302 10.2188L11.6875 8.52673V4.58822L18.4877 8.25002L14.8302 10.2188ZM11 12.2813L8.61953 11L11 9.71869L13.3805 11L11 12.2813ZM10.3125 4.58822V8.52673L7.16977 10.2188L3.51227 8.25002L10.3125 4.58822ZM2.75 9.40072L5.71914 11L2.75 12.5993V9.40072ZM7.16977 11.7812L10.3125 13.4733V17.4118L3.51227 13.75L7.16977 11.7812ZM11.6875 17.4118V13.4733L14.8302 11.7812L18.4877 13.75L11.6875 17.4118Z" fill="#F99007"/>
</svg>
