<svg width="16" height="16" viewBox="0 0 16 16" fill="none" xmlns="http://www.w3.org/2000/svg">
<path d="M13.9653 2.50445C13.9582 2.38213 13.9063 2.26669 13.8197 2.18004C13.7331 2.0934 13.6176 2.04159 13.4953 2.03445C8.73717 1.75507 4.92592 3.18757 3.30092 5.87507C2.73765 6.79439 2.46009 7.86028 2.50342 8.93757C2.53171 9.62647 2.67188 10.3062 2.91842 10.9501C2.93291 10.9897 2.95719 11.025 2.989 11.0527C3.02082 11.0804 3.05913 11.0997 3.10036 11.1086C3.1416 11.1175 3.18443 11.1158 3.22485 11.1038C3.26527 11.0917 3.30198 11.0695 3.33155 11.0394L8.64405 5.6457C8.6905 5.59924 8.74565 5.56239 8.80635 5.53725C8.86705 5.51211 8.9321 5.49917 8.9978 5.49917C9.0635 5.49917 9.12855 5.51211 9.18925 5.53725C9.24994 5.56239 9.30509 5.59924 9.35155 5.6457C9.398 5.69215 9.43485 5.7473 9.46 5.808C9.48514 5.8687 9.49808 5.93375 9.49808 5.99945C9.49808 6.06515 9.48514 6.1302 9.46 6.1909C9.43485 6.25159 9.398 6.30674 9.35155 6.3532L3.54592 12.2463L2.65905 13.1332C2.56682 13.223 2.51175 13.3442 2.5048 13.4727C2.49785 13.6013 2.53953 13.7277 2.62155 13.8269C2.66647 13.879 2.72162 13.9212 2.78358 13.9509C2.84553 13.9806 2.91295 13.9973 2.98163 13.9998C3.05031 14.0023 3.11877 13.9907 3.18274 13.9656C3.24671 13.9404 3.30481 13.9024 3.35342 13.8538L4.4028 12.8044C5.28655 13.2319 6.17842 13.4651 7.0628 13.4963C7.13238 13.4988 7.20176 13.5001 7.27092 13.5001C8.27805 13.5026 9.26607 13.2252 10.1247 12.6988C12.8122 11.0738 14.2453 7.2632 13.9653 2.50445Z" fill="#7CC605"/>
</svg>
