<svg width="20" height="20" viewBox="0 0 20 20" fill="none" xmlns="http://www.w3.org/2000/svg">
<path fill-rule="evenodd" clip-rule="evenodd" d="M15.2082 5.83331C15.2082 7.5592 13.8091 8.95831 12.0832 8.95831C10.3573 8.95831 8.95817 7.5592 8.95817 5.83331C8.95817 4.10742 10.3573 2.70831 12.0832 2.70831C13.8091 2.70831 15.2082 4.10742 15.2082 5.83331ZM12.0832 7.70831C13.1187 7.70831 13.9582 6.86885 13.9582 5.83331C13.9582 4.79778 13.1187 3.95831 12.0832 3.95831C11.0476 3.95831 10.2082 4.79778 10.2082 5.83331C10.2082 6.86885 11.0476 7.70831 12.0832 7.70831Z" fill="#0C111C"/>
<path fill-rule="evenodd" clip-rule="evenodd" d="M4.7915 14.1666C4.7915 15.8925 6.19061 17.2916 7.9165 17.2916C9.64239 17.2916 11.0415 15.8925 11.0415 14.1666C11.0415 12.4408 9.64239 11.0416 7.9165 11.0416C6.19061 11.0416 4.7915 12.4408 4.7915 14.1666ZM7.9165 16.0416C6.88097 16.0416 6.0415 15.2022 6.0415 14.1666C6.0415 13.1311 6.88097 12.2916 7.9165 12.2916C8.95204 12.2916 9.7915 13.1311 9.7915 14.1666C9.7915 15.2022 8.95204 16.0416 7.9165 16.0416Z" fill="#0C111C"/>
<path d="M11.8748 14.1321C11.8748 13.7869 12.1547 13.5071 12.4998 13.5071H18.3332C18.6783 13.5071 18.9582 13.7869 18.9582 14.1321C18.9582 14.4773 18.6783 14.7571 18.3332 14.7571H12.4998C12.1547 14.7571 11.8748 14.4773 11.8748 14.1321Z" fill="#0C111C"/>
<path d="M7.49984 5.17375C7.84502 5.17375 8.12484 5.45357 8.12484 5.79875C8.12484 6.14392 7.84502 6.42375 7.49984 6.42375L1.6665 6.42375C1.32133 6.42375 1.0415 6.14392 1.0415 5.79875C1.0415 5.45357 1.32133 5.17375 1.6665 5.17375L7.49984 5.17375Z" fill="#0C111C"/>
<path d="M1.0415 14.1321C1.0415 13.7869 1.32133 13.5071 1.6665 13.5071H3.33317C3.67835 13.5071 3.95817 13.7869 3.95817 14.1321C3.95817 14.4773 3.67835 14.7571 3.33317 14.7571H1.6665C1.32133 14.7571 1.0415 14.4773 1.0415 14.1321Z" fill="#0C111C"/>
<path d="M18.3332 5.17375C18.6783 5.17375 18.9582 5.45357 18.9582 5.79875C18.9582 6.14392 18.6783 6.42375 18.3332 6.42375H16.6665C16.3213 6.42375 16.0415 6.14392 16.0415 5.79875C16.0415 5.45357 16.3213 5.17375 16.6665 5.17375H18.3332Z" fill="#0C111C"/>
</svg>
