<svg width="20" height="20" viewBox="0 0 20 20" fill="none" xmlns="http://www.w3.org/2000/svg">
<path fill-rule="evenodd" clip-rule="evenodd" d="M9.95202 1.04169C8.02837 1.04168 6.52083 1.04167 5.34459 1.19981C4.14065 1.36168 3.19063 1.69946 2.44495 2.44513C1.69928 3.19081 1.36149 4.14083 1.19963 5.34478C1.04149 6.52101 1.04149 8.02854 1.0415 9.95219V10.0478C1.04149 11.9715 1.04149 13.479 1.19963 14.6553C1.36149 15.8592 1.69928 16.8092 2.44495 17.5549C3.19063 18.3006 4.14065 18.6384 5.34459 18.8002C6.52083 18.9584 8.02836 18.9584 9.95203 18.9584H10.0476C11.9713 18.9584 13.4788 18.9584 14.6551 18.8002C15.859 18.6384 16.8091 18.3006 17.5547 17.5549C18.3004 16.8092 18.6382 15.8592 18.8 14.6553C18.9582 13.479 18.9582 11.9715 18.9582 10.0478V9.95221C18.9582 8.02855 18.9582 6.52102 18.8 5.34478C18.6382 4.14083 18.3004 3.19081 17.5547 2.44513C16.8091 1.69946 15.859 1.36168 14.6551 1.19981C13.4788 1.04167 11.9713 1.04168 10.0477 1.04169H9.95202ZM9.37484 2.29192C7.71341 2.29367 6.47705 2.3088 5.51115 2.43866C4.44582 2.58189 3.80355 2.8543 3.32883 3.32902C2.85412 3.80373 2.58171 4.446 2.43848 5.51133C2.30862 6.47724 2.29349 7.71359 2.29173 9.37502H5.7613C5.46883 9.00969 5.2503 8.57878 5.13113 8.10213C4.68259 6.30795 6.30776 4.68277 8.10194 5.13132C8.57859 5.25048 9.00951 5.46901 9.37484 5.76148V2.29192ZM2.29173 10.625C2.29349 12.2864 2.30862 13.5228 2.43848 14.4887C2.58171 15.554 2.85412 16.1963 3.32883 16.671C3.80355 17.1457 4.44582 17.4181 5.51115 17.5614C6.47705 17.6912 7.71341 17.7064 9.37484 17.7081V11.7697C8.72514 13.0674 7.3832 13.9584 5.83317 13.9584C5.48799 13.9584 5.20817 13.6785 5.20817 13.3334C5.20817 12.9882 5.48799 12.7084 5.83317 12.7084C7.11383 12.7084 8.18688 11.8195 8.46903 10.625H8.36241L8.35474 10.625H2.29173ZM10.6248 17.7081C12.2863 17.7064 13.5226 17.6912 14.4885 17.5614C15.5539 17.4181 16.1961 17.1457 16.6708 16.671C17.1456 16.1963 17.418 15.554 17.5612 14.4887C17.6911 13.5228 17.7062 12.2864 17.7079 10.625H11.6449L11.6373 10.625H11.5306C11.8128 11.8195 12.8858 12.7084 14.1665 12.7084C14.5117 12.7084 14.7915 12.9882 14.7915 13.3334C14.7915 13.6785 14.5117 13.9584 14.1665 13.9584C12.6165 13.9584 11.2745 13.0674 10.6248 11.7697V17.7081ZM17.7079 9.37502H14.2384C14.5309 9.00969 14.7494 8.57878 14.8685 8.10213C15.3171 6.30795 13.6919 4.68277 11.8977 5.13132C11.4211 5.25048 10.9902 5.46902 10.6248 5.76149V2.29192C12.2863 2.29367 13.5226 2.3088 14.4885 2.43866C15.5539 2.58189 16.1961 2.8543 16.6708 3.32902C17.1456 3.80373 17.418 4.446 17.5612 5.51133C17.6911 6.47724 17.7062 7.71359 17.7079 9.37502ZM10.6248 9.37502L10.6248 8.35763C10.6271 7.40493 11.2762 6.57516 12.2009 6.344C13.0796 6.12432 13.8755 6.92025 13.6559 7.79896C13.4248 8.72326 12.5956 9.37228 11.6433 9.37502H10.6248ZM9.37484 8.35626C9.37197 7.40414 8.72299 6.57505 7.79877 6.344C6.92007 6.12432 6.12414 6.92025 6.34381 7.79896C6.57489 8.72326 7.40411 9.37228 8.35635 9.37502H9.37484V8.35626Z" fill="#0C111C"/>
</svg>
