<svg width="16" height="16" viewBox="0 0 16 16" fill="none" xmlns="http://www.w3.org/2000/svg">
<path d="M12.55 6.675C12.55 6.8275 12.4947 6.97375 12.3962 7.08159C12.2978 7.18942 12.1642 7.25 12.025 7.25H9.4C9.26076 7.25 9.12722 7.18942 9.02877 7.08159C8.93031 6.97375 8.875 6.8275 8.875 6.675C8.875 6.5225 8.93031 6.37625 9.02877 6.26841C9.12722 6.16058 9.26076 6.1 9.4 6.1H12.025C12.1642 6.1 12.2978 6.16058 12.3962 6.26841C12.4947 6.37625 12.55 6.5225 12.55 6.675ZM12.025 8.4H9.4C9.26076 8.4 9.12722 8.46058 9.02877 8.56841C8.93031 8.67625 8.875 8.8225 8.875 8.975C8.875 9.1275 8.93031 9.27375 9.02877 9.38159C9.12722 9.48942 9.26076 9.55 9.4 9.55H12.025C12.1642 9.55 12.2978 9.48942 12.3962 9.38159C12.4947 9.27375 12.55 9.1275 12.55 8.975C12.55 8.8225 12.4947 8.67625 12.3962 8.56841C12.2978 8.46058 12.1642 8.4 12.025 8.4ZM14.65 2.65V13C14.65 13.305 14.5394 13.5975 14.3425 13.8132C14.1455 14.0288 13.8785 14.15 13.6 14.15H2.05C1.77152 14.15 1.50445 14.0288 1.30754 13.8132C1.11062 13.5975 1 13.305 1 13V2.65C1 2.345 1.11062 2.05249 1.30754 1.83683C1.50445 1.62116 1.77152 1.5 2.05 1.5H13.6C13.8785 1.5 14.1455 1.62116 14.3425 1.83683C14.5394 2.05249 14.65 2.345 14.65 2.65ZM13.6 13V2.65H2.05V13H13.6ZM8.33294 10.5562C8.36775 10.704 8.34755 10.8608 8.27678 10.9922C8.20602 11.1237 8.09048 11.2189 7.95559 11.257C7.82071 11.2952 7.67752 11.273 7.55752 11.1955C7.43753 11.118 7.35056 10.9915 7.31575 10.8438C7.14316 10.1063 6.45869 9.55 5.72434 9.55C4.99 9.55 4.30619 10.1063 4.13294 10.8438C4.09813 10.9915 4.01116 11.118 3.89117 11.1955C3.77117 11.273 3.62798 11.2952 3.49309 11.257C3.35821 11.2189 3.24267 11.1237 3.17191 10.9922C3.10114 10.8608 3.08094 10.704 3.11575 10.5562C3.28611 9.86176 3.68882 9.2629 4.24384 8.87869C3.9489 8.55757 3.74766 8.14778 3.66561 7.70125C3.58357 7.25472 3.62443 6.79157 3.783 6.3705C3.94158 5.94943 4.21073 5.58941 4.55635 5.33608C4.90196 5.08275 5.30847 4.94751 5.72434 4.94751C6.14022 4.94751 6.54673 5.08275 6.89234 5.33608C7.23795 5.58941 7.50711 5.94943 7.66568 6.3705C7.82426 6.79157 7.86512 7.25472 7.78307 7.70125C7.70103 8.14778 7.49978 8.55757 7.20484 8.87869C7.76047 9.26234 8.16354 9.86139 8.33359 10.5562H8.33294ZM5.725 8.4C5.93267 8.4 6.13568 8.33255 6.30835 8.20619C6.48102 8.07983 6.6156 7.90022 6.69507 7.69009C6.77455 7.47995 6.79534 7.24872 6.75482 7.02565C6.71431 6.80257 6.61431 6.59766 6.46746 6.43683C6.32062 6.276 6.13352 6.16647 5.92984 6.1221C5.72616 6.07772 5.51505 6.1005 5.32318 6.18754C5.13132 6.27458 4.96733 6.42198 4.85196 6.61109C4.73658 6.80021 4.675 7.02255 4.675 7.25C4.675 7.555 4.78562 7.84751 4.98254 8.06317C5.17945 8.27884 5.44652 8.4 5.725 8.4Z" fill="#64748B"/>
</svg>
