<svg width="22" height="22" viewBox="0 0 22 22" fill="none" xmlns="http://www.w3.org/2000/svg">
<path d="M9.25 10.966L17.75 7.91167V12.9899C17.2448 12.6993 16.6443 12.5309 16 12.5309C14.2051 12.5309 12.75 13.838 12.75 15.4505C12.75 17.0629 14.2051 18.37 16 18.37C17.7949 18.37 19.25 17.0629 19.25 15.4505C19.25 15.4504 19.25 15.4505 19.25 15.4505L19.25 6.86803C19.25 5.84139 19.25 4.98038 19.1696 4.29436C19.1582 4.19741 19.1448 4.10103 19.1299 4.01109C19.0525 3.54242 18.9156 3.10521 18.6514 2.74011C18.5193 2.55756 18.3553 2.39304 18.1511 2.25163C18.1128 2.22512 18.073 2.19942 18.0319 2.17456L18.0236 2.1696C17.3164 1.74678 16.5213 1.77702 15.7023 1.9645C14.9102 2.14583 13.9282 2.51508 12.724 2.96787L10.63 3.75522C10.0655 3.96743 9.58732 4.14722 9.21197 4.33343C8.81261 4.53156 8.46862 4.76524 8.21064 5.11347C7.95267 5.46169 7.84553 5.83697 7.79626 6.2444C7.74996 6.62734 7.74998 7.09303 7.75 7.64269V14.7865C7.24485 14.496 6.64432 14.3276 6 14.3276C4.20507 14.3276 2.75 15.6347 2.75 17.2471C2.75 18.8596 4.20507 20.1667 6 20.1667C7.79493 20.1667 9.25 18.8596 9.25 17.2471C9.25 17.2471 9.25 17.2472 9.25 17.2471L9.25 10.966Z" fill="#BD00FF"/>
</svg>
