<svg width="20" height="20" viewBox="0 0 20 20" fill="none" xmlns="http://www.w3.org/2000/svg">
<path d="M9.99984 5.20835C10.345 5.20835 10.6248 5.48818 10.6248 5.83335V10.8334C10.6248 11.1785 10.345 11.4584 9.99984 11.4584C9.65466 11.4584 9.37484 11.1785 9.37484 10.8334V5.83335C9.37484 5.48818 9.65466 5.20835 9.99984 5.20835Z" fill="#6B7280"/>
<path d="M9.99984 14.1667C10.4601 14.1667 10.8332 13.7936 10.8332 13.3334C10.8332 12.8731 10.4601 12.5 9.99984 12.5C9.5396 12.5 9.1665 12.8731 9.1665 13.3334C9.1665 13.7936 9.5396 14.1667 9.99984 14.1667Z" fill="#6B7280"/>
<path fill-rule="evenodd" clip-rule="evenodd" d="M1.0415 10C1.0415 5.05247 5.05229 1.04169 9.99984 1.04169C14.9474 1.04169 18.9582 5.05247 18.9582 10C18.9582 14.9476 14.9474 18.9584 9.99984 18.9584C5.05229 18.9584 1.0415 14.9476 1.0415 10ZM9.99984 2.29169C5.74264 2.29169 2.2915 5.74283 2.2915 10C2.2915 14.2572 5.74264 17.7084 9.99984 17.7084C14.257 17.7084 17.7082 14.2572 17.7082 10C17.7082 5.74283 14.257 2.29169 9.99984 2.29169Z" fill="#6B7280"/>
</svg>
