<svg width="20" height="20" viewBox="0 0 20 20" fill="none" xmlns="http://www.w3.org/2000/svg">
<path fill-rule="evenodd" clip-rule="evenodd" d="M9.99984 2.29166C5.74264 2.29166 2.2915 5.74279 2.2915 9.99999C2.2915 14.2572 5.74264 17.7083 9.99984 17.7083C14.257 17.7083 17.7082 14.2572 17.7082 9.99999C17.7082 5.74279 14.257 2.29166 9.99984 2.29166ZM1.0415 9.99999C1.0415 5.05244 5.05229 1.04166 9.99984 1.04166C14.9474 1.04166 18.9582 5.05244 18.9582 9.99999C18.9582 14.9475 14.9474 18.9583 9.99984 18.9583C5.05229 18.9583 1.0415 14.9475 1.0415 9.99999ZM6.99773 12.9611C7.20328 12.6838 7.59471 12.6257 7.87202 12.8312C8.47897 13.2811 9.21159 13.5417 9.99984 13.5417C10.7881 13.5417 11.5207 13.2811 12.1277 12.8312C12.405 12.6257 12.7964 12.6838 13.0019 12.9611C13.2075 13.2385 13.1493 13.6299 12.872 13.8354C12.0617 14.4361 11.0706 14.7917 9.99984 14.7917C8.92903 14.7917 7.938 14.4361 7.12766 13.8354C6.85036 13.6299 6.79218 13.2385 6.99773 12.9611Z" fill="#0C111C"/>
<path d="M13.3332 8.74999C13.3332 9.44035 12.9601 9.99999 12.4998 9.99999C12.0396 9.99999 11.6665 9.44035 11.6665 8.74999C11.6665 8.05963 12.0396 7.49999 12.4998 7.49999C12.9601 7.49999 13.3332 8.05963 13.3332 8.74999Z" fill="#0C111C"/>
<path d="M8.33317 8.74999C8.33317 9.44035 7.96007 9.99999 7.49984 9.99999C7.0396 9.99999 6.6665 9.44035 6.6665 8.74999C6.6665 8.05963 7.0396 7.49999 7.49984 7.49999C7.96007 7.49999 8.33317 8.05963 8.33317 8.74999Z" fill="#0C111C"/>
</svg>
