<svg width="22" height="22" viewBox="0 0 22 22" fill="none" xmlns="http://www.w3.org/2000/svg">
<path fill-rule="evenodd" clip-rule="evenodd" d="M11.0002 20.1667C16.0628 20.1667 20.1668 16.0626 20.1668 11C20.1668 5.93743 16.0628 1.83337 11.0002 1.83337C5.93755 1.83337 1.8335 5.93743 1.8335 11C1.8335 16.0626 5.93755 20.1667 11.0002 20.1667ZM9.95632 8.58311L9.83617 8.79866C9.70419 9.03542 9.6382 9.1538 9.53531 9.2319C9.43242 9.31001 9.30427 9.339 9.04799 9.39699L8.81466 9.44978C7.91278 9.65384 7.46184 9.75588 7.35455 10.1009C7.24726 10.4459 7.55469 10.8054 8.16953 11.5243L8.3286 11.7104C8.50332 11.9147 8.59068 12.0168 8.62998 12.1432C8.66928 12.2696 8.65607 12.4059 8.62966 12.6785L8.60561 12.9267C8.51265 13.8859 8.46617 14.3656 8.74705 14.5788C9.02793 14.792 9.45014 14.5976 10.2946 14.2088L10.513 14.1082C10.753 13.9977 10.873 13.9425 11.0002 13.9425C11.1273 13.9425 11.2473 13.9977 11.4873 14.1082L11.7057 14.2088C12.5502 14.5976 12.9724 14.792 13.2533 14.5788C13.5342 14.3656 13.4877 13.8859 13.3947 12.9267L13.3707 12.6785C13.3443 12.4059 13.331 12.2696 13.3703 12.1432C13.4096 12.0168 13.497 11.9147 13.6717 11.7104L13.8308 11.5243C14.4456 10.8054 14.7531 10.4459 14.6458 10.1009C14.5385 9.75587 14.0875 9.65384 13.1857 9.44978L12.9523 9.39699C12.6961 9.339 12.5679 9.31001 12.465 9.2319C12.3621 9.1538 12.2961 9.03542 12.1642 8.79867L12.044 8.58311C11.5796 7.74995 11.3473 7.33337 11.0002 7.33337C10.653 7.33337 10.4208 7.74996 9.95632 8.58311Z" fill="#BD00FF"/>
</svg>
