<svg width="20" height="20" viewBox="0 0 20 20" fill="none" xmlns="http://www.w3.org/2000/svg">
<path fill-rule="evenodd" clip-rule="evenodd" d="M9.99984 2.29166C5.74264 2.29166 2.2915 5.74279 2.2915 9.99999C2.2915 14.2572 5.74264 17.7083 9.99984 17.7083C14.257 17.7083 17.7082 14.2572 17.7082 9.99999C17.7082 5.74279 14.257 2.29166 9.99984 2.29166ZM1.0415 9.99999C1.0415 5.05244 5.05229 1.04166 9.99984 1.04166C14.9474 1.04166 18.9582 5.05244 18.9582 9.99999C18.9582 14.9475 14.9474 18.9583 9.99984 18.9583C5.05229 18.9583 1.0415 14.9475 1.0415 9.99999ZM9.99984 7.41706C9.90072 7.56415 9.7786 7.78096 9.5968 8.1071L9.48757 8.30305C9.47946 8.3176 9.47109 8.3328 9.46243 8.34854C9.37195 8.51296 9.24904 8.73631 9.04605 8.8904C8.83934 9.04733 8.59004 9.1022 8.4118 9.14144C8.39488 9.14516 8.3786 9.14875 8.36306 9.15226L8.15094 9.20026C7.7633 9.28797 7.52171 9.34411 7.35938 9.40086C7.45976 9.55165 7.62824 9.75084 7.90154 10.0704L8.04614 10.2395C8.05678 10.252 8.06787 10.2648 8.07931 10.278C8.20244 10.4206 8.36623 10.6102 8.44193 10.8536C8.51685 11.0946 8.49149 11.3438 8.47211 11.5343C8.4703 11.5521 8.46854 11.5694 8.46692 11.5861L8.44506 11.8117C8.406 12.2148 8.38193 12.4755 8.38262 12.6599C8.5428 12.6032 8.76218 12.5035 9.097 12.3493L9.29561 12.2579C9.31022 12.2512 9.32552 12.244 9.34146 12.2365C9.50634 12.1594 9.74022 12.0499 9.99984 12.0499C10.2595 12.0499 10.4933 12.1594 10.6582 12.2365C10.6742 12.244 10.6895 12.2512 10.7041 12.2579L10.9027 12.3493C11.2375 12.5035 11.4569 12.6032 11.6171 12.6599C11.6177 12.4755 11.5937 12.2148 11.5546 11.8117L11.5328 11.5861C11.5311 11.5694 11.5294 11.5521 11.5276 11.5343C11.5082 11.3438 11.4828 11.0946 11.5577 10.8536C11.6334 10.6102 11.7972 10.4206 11.9204 10.278C11.9318 10.2648 11.9429 10.252 11.9535 10.2395L12.0981 10.0704C12.3714 9.75084 12.5399 9.55165 12.6403 9.40086C12.478 9.34411 12.2364 9.28797 11.8487 9.20026L11.6366 9.15226C11.6211 9.14875 11.6048 9.14516 11.5879 9.14144C11.4096 9.1022 11.1603 9.04733 10.9536 8.8904C10.7506 8.73631 10.6277 8.51296 10.5372 8.34855C10.5286 8.3328 10.5202 8.3176 10.5121 8.30305L10.4029 8.1071C10.2211 7.78096 10.099 7.56414 9.99984 7.41706ZM11.7939 12.7085C11.7949 12.7085 11.7954 12.7086 11.7954 12.7086L11.7939 12.7085ZM8.20428 12.7086C8.20429 12.7086 8.20479 12.7085 8.20573 12.7085L8.20428 12.7086ZM9.06913 6.57069C9.24885 6.336 9.5423 6.04166 9.99984 6.04166C10.4574 6.04166 10.7508 6.336 10.9305 6.57069C11.1036 6.79669 11.2808 7.11458 11.4734 7.46032C11.4805 7.473 11.4876 7.48572 11.4947 7.49847L11.6039 7.69442C11.6346 7.74944 11.6583 7.79196 11.6794 7.82842C11.6935 7.85292 11.7046 7.87143 11.7136 7.88571C11.7276 7.88958 11.7453 7.89418 11.7681 7.89971C11.8072 7.90925 11.8528 7.91958 11.9125 7.93308L12.1246 7.98108C12.139 7.98435 12.1535 7.98761 12.1679 7.99086C12.5403 8.07506 12.8879 8.15365 13.1504 8.25709C13.4348 8.36918 13.7784 8.57118 13.9108 8.99698C14.0411 9.41596 13.8807 9.77767 13.7187 10.0351C13.5665 10.2769 13.3314 10.5516 13.0761 10.8501L12.9035 11.0519C12.8629 11.0994 12.8316 11.1361 12.805 11.1682C12.7832 11.1945 12.7681 11.2135 12.7574 11.2278C12.7588 11.2742 12.7647 11.3396 12.7769 11.4656L12.8029 11.7336C12.8417 12.133 12.877 12.4975 12.8642 12.7846C12.851 13.0828 12.7806 13.482 12.426 13.7512C12.0613 14.0281 11.6537 13.9741 11.3647 13.8913C11.0941 13.8138 10.7691 13.664 10.4206 13.5035C10.407 13.4973 10.3935 13.491 10.3799 13.4848L10.1813 13.3933C10.1254 13.3676 10.0827 13.3479 10.0455 13.3316C10.0273 13.3235 10.0123 13.3171 9.99984 13.312C9.98742 13.3171 9.97242 13.3235 9.95413 13.3316C9.917 13.3479 9.87425 13.3676 9.81839 13.3933L9.61979 13.4848C9.6062 13.491 9.59264 13.4973 9.57912 13.5035C9.23059 13.664 8.90554 13.8138 8.63501 13.8913C8.34595 13.9741 7.93841 14.0281 7.57365 13.7512C7.21909 13.482 7.14873 13.0828 7.13544 12.7846C7.12265 12.4975 7.15802 12.133 7.19677 11.7336L7.22275 11.4656C7.23495 11.3396 7.24091 11.2742 7.24231 11.2278C7.23153 11.2135 7.21646 11.1945 7.19465 11.1682C7.16806 11.1361 7.13676 11.0994 7.09614 11.0519L6.95154 10.8828C6.94218 10.8719 6.93284 10.861 6.92353 10.8501C6.66823 10.5516 6.43322 10.2769 6.28099 10.0351C6.11895 9.77767 5.95855 9.41596 6.08884 8.99698C6.22124 8.57118 6.56488 8.36918 6.84929 8.25709C7.11178 8.15365 7.45938 8.07506 7.83181 7.99086C7.8462 7.98761 7.86063 7.98435 7.87509 7.98108L8.08721 7.93308C8.14688 7.91958 8.19245 7.90925 8.23162 7.89971C8.25436 7.89418 8.27208 7.88959 8.2861 7.88571C8.29504 7.87143 8.30614 7.85292 8.32029 7.82842C8.34136 7.79196 8.36508 7.74944 8.39575 7.69442L8.50498 7.49847C8.51209 7.48572 8.51918 7.473 8.52624 7.46032C8.71891 7.11458 8.89606 6.79669 9.06913 6.57069Z" fill="#0C111C"/>
</svg>
