<svg width="20" height="19" viewBox="0 0 20 19" fill="none" xmlns="http://www.w3.org/2000/svg">
<path d="M19.5562 7.36069C19.4729 7.10407 19.316 6.87761 19.105 6.70952C18.8939 6.54143 18.6381 6.43913 18.3694 6.41538L13.2655 5.97537L11.2649 1.21788C11.1608 0.968241 10.9851 0.755005 10.76 0.605019C10.5349 0.455032 10.2704 0.375 9.99992 0.375C9.72943 0.375 9.46498 0.455032 9.23988 0.605019C9.01478 0.755005 8.83908 0.968241 8.73492 1.21788L6.74031 5.97537L1.63047 6.41795C1.36066 6.44063 1.10354 6.54245 0.89137 6.71067C0.679198 6.87889 0.521414 7.106 0.437804 7.36353C0.354193 7.62106 0.348478 7.89755 0.421376 8.15831C0.494273 8.41908 0.642538 8.65252 0.847578 8.82936L4.72422 12.217L3.56234 17.2478C3.50091 17.5111 3.51844 17.7866 3.61274 18.0399C3.70705 18.2933 3.87395 18.5132 4.09257 18.6723C4.3112 18.8313 4.57185 18.9223 4.84193 18.934C5.11201 18.9457 5.37955 18.8775 5.61109 18.738L9.99391 16.0739L14.3862 18.738C14.6177 18.8775 14.8852 18.9457 15.1553 18.934C15.4254 18.9223 15.6861 18.8313 15.9047 18.6723C16.1233 18.5132 16.2902 18.2933 16.3845 18.0399C16.4788 17.7866 16.4964 17.5111 16.4349 17.2478L15.2739 12.2119L19.1497 8.82936C19.3547 8.65191 19.5027 8.41781 19.575 8.15649C19.6473 7.89517 19.6408 7.6183 19.5562 7.36069ZM18.2482 7.79038L14.3724 11.1729C14.1838 11.337 14.0435 11.5494 13.9665 11.7873C13.8896 12.0251 13.879 12.2795 13.9359 12.523L15.1003 17.5623L10.7115 14.8983C10.4974 14.7679 10.2515 14.6989 10.0008 14.6989C9.75008 14.6989 9.5042 14.7679 9.29008 14.8983L4.90726 17.5623L6.06398 12.5264C6.12083 12.2829 6.11022 12.0286 6.0333 11.7907C5.95638 11.5528 5.81605 11.3404 5.62742 11.1763L1.74992 7.79553C1.74961 7.79296 1.74961 7.79037 1.74992 7.7878L6.85805 7.34608C7.10744 7.3241 7.3461 7.23444 7.54828 7.08678C7.75045 6.93912 7.90848 6.73906 8.00531 6.50819L9.99992 1.7567L11.9937 6.50819C12.0905 6.73906 12.2485 6.93912 12.4507 7.08678C12.6529 7.23444 12.8915 7.3241 13.1409 7.34608L18.2499 7.7878C18.2499 7.7878 18.2499 7.79295 18.2499 7.79381L18.2482 7.79038Z" fill="#F85A40"/>
</svg>
