<svg width="18" height="18" viewBox="0 0 18 18" fill="none" xmlns="http://www.w3.org/2000/svg">
<path fill-rule="evenodd" clip-rule="evenodd" d="M7.82784 0.93235C8.56902 0.578092 9.43066 0.578092 10.1718 0.93235C10.4938 1.08625 10.7889 1.33792 11.1974 1.68638C11.2186 1.70447 11.2401 1.72282 11.262 1.74143C11.4604 1.91051 11.5229 1.96249 11.5861 2.00487C11.7469 2.11265 11.9275 2.18745 12.1174 2.22495C12.1921 2.23969 12.273 2.24711 12.5329 2.26785C12.5615 2.27013 12.5896 2.27236 12.6174 2.27457C13.1527 2.31704 13.5393 2.34772 13.8758 2.46658C14.6504 2.74017 15.2597 3.34945 15.5332 4.12404C15.6521 4.46054 15.6828 4.84713 15.7253 5.38241C15.7275 5.41019 15.7297 5.43838 15.732 5.46698C15.7527 5.72682 15.7601 5.80777 15.7749 5.88244C15.8124 6.07236 15.8872 6.25295 15.995 6.41375C16.0373 6.47698 16.0893 6.53946 16.2584 6.73786C16.277 6.75971 16.2954 6.78122 16.3135 6.80243C16.6619 7.21096 16.9136 7.506 17.0675 7.82799C17.4217 8.56917 17.4217 9.43081 17.0675 10.172C16.9136 10.494 16.6619 10.789 16.3135 11.1975C16.2954 11.2188 16.277 11.2403 16.2584 11.2621C16.0893 11.4605 16.0373 11.523 15.995 11.5862C15.8872 11.747 15.8124 11.9276 15.7749 12.1175C15.7601 12.1922 15.7527 12.2732 15.732 12.533C15.7297 12.5616 15.7275 12.5898 15.7253 12.6176C15.6828 13.1529 15.6521 13.5394 15.5332 13.8759C15.2597 14.6505 14.6504 15.2598 13.8758 15.5334C13.5393 15.6523 13.1527 15.6829 12.6174 15.7254C12.5896 15.7276 12.5615 15.7299 12.5329 15.7321C12.273 15.7529 12.1921 15.7603 12.1174 15.775C11.9275 15.8125 11.7469 15.8873 11.5861 15.9951C11.5229 16.0375 11.4604 16.0895 11.262 16.2586C11.2401 16.2772 11.2186 16.2955 11.1974 16.3136C10.7889 16.6621 10.4938 16.9137 10.1718 17.0676C9.43066 17.4219 8.56902 17.4219 7.82784 17.0676C7.50584 16.9137 7.2108 16.6621 6.80226 16.3136C6.78105 16.2955 6.75954 16.2772 6.73771 16.2586C6.53931 16.0895 6.47683 16.0375 6.4136 15.9951C6.2528 15.8873 6.0722 15.8125 5.88228 15.775C5.80761 15.7603 5.72667 15.7529 5.46683 15.7321C5.43823 15.7299 5.41004 15.7276 5.38226 15.7254C4.84697 15.6829 4.46039 15.6523 4.12388 15.5334C3.34929 15.2598 2.74002 14.6505 2.46643 13.8759C2.34757 13.5394 2.31689 13.1529 2.27442 12.6176C2.27221 12.5898 2.26998 12.5616 2.26769 12.533C2.24696 12.2732 2.23954 12.1922 2.22479 12.1175C2.1873 11.9276 2.11249 11.747 2.00471 11.5862C1.96234 11.523 1.91035 11.4605 1.74128 11.2621C1.72267 11.2403 1.70432 11.2188 1.68623 11.1976C1.33776 10.789 1.0861 10.494 0.932197 10.172C0.577939 9.43081 0.577939 8.56917 0.932197 7.82799C1.0861 7.506 1.33776 7.21095 1.68623 6.80242C1.70432 6.78121 1.72267 6.7597 1.74128 6.73786C1.91035 6.53946 1.96234 6.47698 2.00471 6.41376C2.11249 6.25295 2.1873 6.07236 2.22479 5.88244C2.23954 5.80777 2.24696 5.72683 2.26769 5.46698C2.26998 5.43838 2.27221 5.41019 2.27442 5.38241C2.31689 4.84713 2.34757 4.46054 2.46643 4.12404C2.74002 3.34945 3.34929 2.74017 4.12388 2.46658C4.46039 2.34772 4.84698 2.31704 5.38226 2.27457C5.41004 2.27236 5.43823 2.27013 5.46683 2.26785C5.72667 2.24711 5.80761 2.23969 5.88228 2.22495C6.0722 2.18745 6.2528 2.11265 6.4136 2.00487C6.47683 1.96249 6.53931 1.91051 6.73771 1.74143C6.75955 1.72282 6.78106 1.70447 6.80226 1.68638C7.2108 1.33792 7.50584 1.08625 7.82784 0.93235ZM9.63091 2.06407C9.23182 1.87332 8.76786 1.87332 8.36876 2.06407C8.21446 2.13782 8.05183 2.26959 7.5513 2.69613C7.54308 2.70314 7.53497 2.71005 7.52697 2.71687C7.36271 2.85691 7.2428 2.95913 7.11197 3.04682C6.81333 3.24698 6.47794 3.38591 6.12524 3.45554C5.97072 3.48605 5.81365 3.49855 5.59848 3.51568C5.58799 3.51651 5.57737 3.51736 5.56661 3.51822C4.91107 3.57053 4.70289 3.59236 4.54164 3.64931C4.12455 3.79663 3.79648 4.12471 3.64916 4.54179C3.59221 4.70304 3.57038 4.91122 3.51807 5.56676C3.51721 5.57752 3.51636 5.58815 3.51553 5.59863C3.4984 5.8138 3.48589 5.97087 3.45539 6.12539C3.38575 6.4781 3.24683 6.81348 3.04667 7.11212C2.95898 7.24296 2.85676 7.36286 2.71672 7.52713C2.70989 7.53513 2.70298 7.54324 2.69598 7.55145C2.26943 8.05198 2.13767 8.21462 2.06392 8.36891C1.87316 8.76801 1.87316 9.23197 2.06392 9.63107C2.13767 9.78536 2.26943 9.948 2.69598 10.4485C2.70298 10.4567 2.7099 10.4649 2.71672 10.4729C2.85676 10.6371 2.95898 10.757 3.04667 10.8879C3.24683 11.1865 3.38575 11.5219 3.45539 11.8746C3.48589 12.0291 3.4984 12.1862 3.51553 12.4014C3.51636 12.4118 3.51721 12.4225 3.51807 12.4332C3.57038 13.0888 3.59221 13.2969 3.64916 13.4582C3.79648 13.8753 4.12455 14.2033 4.54164 14.3507C4.70289 14.4076 4.91107 14.4295 5.56661 14.4818L5.59847 14.4843C5.81365 14.5014 5.97072 14.5139 6.12524 14.5444C6.47794 14.6141 6.81333 14.753 7.11197 14.9532C7.2428 15.0409 7.36271 15.1431 7.52697 15.2831L7.5513 15.3039C8.05183 15.7304 8.21446 15.8622 8.36876 15.9359C8.76786 16.1267 9.23182 16.1267 9.63091 15.9359C9.78521 15.8622 9.94785 15.7304 10.4484 15.3039L10.4727 15.2831C10.637 15.1431 10.7569 15.0408 10.8877 14.9532C11.1863 14.753 11.5217 14.6141 11.8744 14.5444C12.029 14.5139 12.186 14.5014 12.4012 14.4843L12.4331 14.4818C13.0886 14.4295 13.2968 14.4076 13.458 14.3507C13.8751 14.2033 14.2032 13.8753 14.3505 13.4582C14.4075 13.2969 14.4293 13.0888 14.4816 12.4332L14.4842 12.4014C14.5013 12.1862 14.5138 12.0291 14.5443 11.8746C14.6139 11.5219 14.7528 11.1865 14.953 10.8879C15.0407 10.757 15.1429 10.6371 15.2829 10.4729L15.3037 10.4485C15.7302 9.948 15.862 9.78536 15.9358 9.63107C16.1265 9.23197 16.1265 8.76801 15.9358 8.36891C15.862 8.21462 15.7302 8.05198 15.3037 7.55145L15.2829 7.5271C15.1429 7.36285 15.0407 7.24295 14.953 7.11212C14.7528 6.81348 14.6139 6.4781 14.5443 6.12539C14.5138 5.97087 14.5013 5.8138 14.4842 5.59863L14.4816 5.56676C14.4293 4.91122 14.4075 4.70304 14.3505 4.54179C14.2032 4.12471 13.8751 3.79663 13.458 3.64931C13.2968 3.59236 13.0886 3.57053 12.4331 3.51822C12.4223 3.51736 12.4117 3.51651 12.4012 3.51568C12.186 3.49855 12.029 3.48605 11.8744 3.45554C11.5217 3.38591 11.1863 3.24698 10.8877 3.04682C10.7569 2.95913 10.637 2.85691 10.4727 2.71687C10.4647 2.71005 10.4566 2.70313 10.4484 2.69613C9.94785 2.26959 9.78521 2.13782 9.63091 2.06407ZM12.3701 6.46593C12.6151 6.71086 12.6151 7.10796 12.3701 7.35289L8.18897 11.534C7.94404 11.779 7.54694 11.779 7.30201 11.534L5.62955 9.86158C5.38462 9.61666 5.38462 9.21955 5.62955 8.97463C5.87448 8.7297 6.27158 8.7297 6.51651 8.97463L7.74549 10.2036L11.4832 6.46593C11.7281 6.22101 12.1252 6.22101 12.3701 6.46593Z" fill="#0C111C"/>
</svg>
