<svg width="20" height="20" viewBox="0 0 20 20" fill="none" xmlns="http://www.w3.org/2000/svg">
<path fill-rule="evenodd" clip-rule="evenodd" d="M7.63577 3.14605C7.73921 3.47536 7.55609 3.82618 7.22677 3.92961C4.36566 4.82823 2.2915 7.50152 2.2915 10.6576C2.2915 14.5516 5.44821 17.7083 9.3422 17.7083C12.4983 17.7083 15.1716 15.6342 16.0702 12.7731C16.1737 12.4437 16.5245 12.2606 16.8538 12.3641C17.1831 12.4675 17.3662 12.8183 17.2628 13.1476C16.2052 16.5147 13.0599 18.9583 9.3422 18.9583C4.75785 18.9583 1.0415 15.242 1.0415 10.6576C1.0415 6.93993 3.4851 3.7946 6.85221 2.73705C7.18153 2.63361 7.53234 2.81673 7.63577 3.14605Z" fill="#BD00FF"/>
<path d="M18.2608 8.28938C17.3761 5.1203 14.8795 2.6237 11.7104 1.73907C10.3408 1.35674 9.1665 2.54515 9.1665 3.96717V9.54592C9.1665 10.2569 9.74289 10.8333 10.4539 10.8333H16.0327C17.4547 10.8333 18.6431 9.65904 18.2608 8.28938Z" fill="#BD00FF"/>
</svg>
