<svg width="20" height="20" viewBox="0 0 20 20" fill="none" xmlns="http://www.w3.org/2000/svg">
<path d="M15.8332 10C15.8332 10.4602 15.4601 10.8333 14.9998 10.8333C14.5396 10.8333 14.1665 10.4602 14.1665 10C14.1665 9.53977 14.5396 9.16668 14.9998 9.16668C15.4601 9.16668 15.8332 9.53977 15.8332 10Z" fill="#6B7280"/>
<path fill-rule="evenodd" clip-rule="evenodd" d="M8.28616 2.70834H10.8802C12.4117 2.70833 13.6247 2.70832 14.574 2.83596C15.551 2.96731 16.3418 3.24408 16.9655 3.86771C17.7358 4.63804 17.9813 5.6697 18.0704 7.00841C18.5514 7.22009 18.9147 7.66776 18.9547 8.23484C18.9582 8.285 18.9582 8.33907 18.9582 8.38919C18.9582 8.39376 18.9582 8.39829 18.9582 8.40279V11.5972C18.9582 11.6017 18.9582 11.6063 18.9582 11.6108C18.9582 11.661 18.9582 11.715 18.9547 11.7652C18.9147 12.3323 18.5514 12.7799 18.0704 12.9916C17.9813 14.3303 17.7358 15.362 16.9655 16.1323C16.3418 16.7559 15.551 17.0327 14.574 17.1641C13.6247 17.2917 12.4116 17.2917 10.8802 17.2917H8.28616C6.75469 17.2917 5.54166 17.2917 4.59232 17.1641C3.6153 17.0327 2.82451 16.7559 2.20087 16.1323C1.57724 15.5087 1.30047 14.7179 1.16912 13.7409C1.04148 12.7915 1.04149 11.5785 1.0415 10.047V9.953C1.04149 8.42153 1.04148 7.2085 1.16912 6.25916C1.30047 5.28214 1.57724 4.49135 2.20087 3.86771C2.82451 3.24408 3.6153 2.96731 4.59232 2.83596C5.54166 2.70832 6.75469 2.70833 8.28616 2.70834ZM16.8064 13.125H15.1921C13.4045 13.125 11.8748 11.7687 11.8748 10C11.8748 8.23131 13.4045 6.87501 15.1921 6.87501H16.8064C16.7116 5.75713 16.497 5.16704 16.0816 4.7516C15.7289 4.39892 15.2459 4.18753 14.4075 4.07481C13.5511 3.95967 12.4222 3.95834 10.8332 3.95834H8.33317C6.74415 3.95834 5.61526 3.95967 4.75888 4.07481C3.92047 4.18753 3.43743 4.39892 3.08476 4.7516C2.73208 5.10427 2.52069 5.58731 2.40797 6.42572C2.29283 7.28211 2.2915 8.41099 2.2915 10C2.2915 11.589 2.29283 12.7179 2.40797 13.5743C2.52069 14.4127 2.73208 14.8958 3.08476 15.2484C3.43743 15.6011 3.92047 15.8125 4.75888 15.9252C5.61527 16.0404 6.74415 16.0417 8.33317 16.0417H10.8332C12.4222 16.0417 13.5511 16.0404 14.4075 15.9252C15.2459 15.8125 15.7289 15.6011 16.0816 15.2484C16.497 14.833 16.7116 14.2429 16.8064 13.125ZM4.37484 6.66668C4.37484 6.3215 4.65466 6.04168 4.99984 6.04168H8.33317C8.67835 6.04168 8.95817 6.3215 8.95817 6.66668C8.95817 7.01186 8.67835 7.29168 8.33317 7.29168H4.99984C4.65466 7.29168 4.37484 7.01186 4.37484 6.66668ZM17.4361 8.1252C17.4192 8.12502 17.397 8.12501 17.3609 8.12501H15.1921C14.006 8.12501 13.1248 9.00729 13.1248 10C13.1248 10.9927 14.006 11.875 15.1921 11.875H17.3609C17.397 11.875 17.4192 11.875 17.4361 11.8748C17.4465 11.8747 17.452 11.8746 17.4546 11.8745L17.4565 11.8744C17.6282 11.8639 17.7021 11.748 17.7077 11.6783C17.7077 11.6783 17.7079 11.673 17.708 11.6655C17.7082 11.6507 17.7082 11.631 17.7082 11.5972V8.40279C17.7082 8.36903 17.7082 8.34932 17.708 8.33453C17.7079 8.327 17.7077 8.32176 17.7077 8.32176C17.7021 8.25203 17.6282 8.13609 17.4565 8.12564C17.4565 8.12564 17.4523 8.12537 17.4361 8.1252Z" fill="#6B7280"/>
</svg>
